<svg version="1.2" xmlns="http://www.w3.org/2000/svg" viewBox="0 0 512 512" width="512" height="512">
	<title>image</title>
	<style>
		.s0 { fill: #ff0000 } 
	</style>
	<path id="Path 0" fill-rule="evenodd" class="s0" d="m192.5 0.1l62.5-0.1c54.6 0 63.2 0.2 68 1.6 3 0.9 8 3.1 11 4.9 3 1.8 7.7 5.7 10.4 8.6 2.7 3 6.2 8.1 7.7 11.4 1.6 3.3 3.3 8.5 3.9 11.5 0.6 3 1 9.7 1 24h33.3c26.9 0 34.3 0.3 39.2 1.6 3.3 0.8 8.3 2.7 11 4.2 2.7 1.5 7.3 4.9 10 7.7 2.7 2.7 6.3 7.5 7.9 10.5 1.6 3 3.5 7.7 4.3 10.5 0.7 2.7 1.3 7.9 1.3 11.5 0 3.6-0.7 9.2-1.6 12.5-0.8 3.3-3 8.5-4.9 11.5-1.8 3-5.5 7.5-8.2 10.1-2.6 2.5-7.3 5.7-10.3 7.1-3 1.4-6.3 2.9-7.3 3.2-1.6 0.6-1.7 8.7-1.7 152.1 0 130.9-0.2 152.5-1.5 158.8-0.8 3.9-3.4 11-5.7 15.7-3.1 6.4-5.9 10.2-11.2 15.5-4.5 4.4-9.7 8.4-14.1 10.7-3.9 2-9.7 4.3-13 5.2-5.3 1.4-20.5 1.6-128.5 1.6-106.5 0-123.3-0.2-128.5-1.5-3.3-0.9-8.9-3-12.4-4.8-3.5-1.7-9.1-5.7-12.5-8.8-3.4-3-8-8.5-10.4-12.2-2.3-3.7-5.4-10.2-9.7-22.2l-0.5-309-7.8-3.7c-5-2.4-9.5-5.5-13-9-3.4-3.3-6.7-8.1-9-12.8-3.2-6.7-3.7-8.6-4-17-0.3-7.1 0-11.1 1.4-16 1-3.6 3.4-9 5.4-12 2-3 5.6-7.2 8.1-9.3 2.4-2.2 6.6-5 9.4-6.4 2.7-1.4 7.2-3.2 10-3.9 3.7-1 13.8-1.4 72.5-1.4v-11.3c0-7.3 0.5-13.1 1.6-16.7 0.9-3 2.9-7.8 4.4-10.5 1.6-2.8 4.8-7 7.2-9.4 2.4-2.4 5.9-5.4 7.8-6.7 1.9-1.3 6.4-3.5 10-4.9zm-2.8 28.4c-2 1.4-4.9 4.5-6.4 6.8-2.5 3.9-2.8 5.2-3 15.5l-0.3 11.2h152c0-17-0.5-20.5-1.9-23.5-1-2.2-2.9-5.1-4.2-6.5-1.3-1.5-4.4-3.7-6.9-5l-4.5-2.5c-86-0.2-113.3 0.1-116 0.6-2.8 0.5-6.7 2-8.8 3.4zm-110.9 65.2c-1.5 1.5-3.4 4.5-4.2 6.6-0.9 2.1-1.6 5.7-1.6 8 0 2.3 0.9 6 1.9 8.2 1 2.2 3.4 5.5 5.4 7.3 2.1 1.8 5.4 3.7 7.5 4.2 2.4 0.7 62.3 1 168.2 1 126 0 165.4-0.3 168.5-1.2 2.3-0.7 5.8-3.1 8.3-5.5 2.4-2.5 4.6-5.8 5.2-8 0.5-2.1 1-5.3 1-7.3 0-1.9-0.9-5.3-1.9-7.5-1-2.2-3.1-5.2-4.7-6.7-1.6-1.4-4.6-3.4-6.6-4.2-3.4-1.4-22-1.6-170-1.5-159.7 0-166.5 0.1-170.3 1.8-2.2 1.1-5.2 3.2-6.7 4.8zm27.5 211.1c0.2 140.8 0.4 151.1 2 155.7 1 2.8 2.8 6.8 4.1 9 1.3 2.2 4.8 6.2 7.7 8.9 3 2.6 7.9 5.8 10.9 7l5.5 2.1c187 0.5 231.6 0.2 236-0.4 4-0.6 9.3-2.2 12.4-3.8 2.9-1.5 7.1-4.7 9.2-7 2.2-2.3 4.9-6.2 6-8.5 1.2-2.3 2.8-6.3 3.5-8.8 1.1-3.7 1.4-31.2 1.4-154.7v-150.3h-299.1zm78.5-119.7c1.3 0 3.8 0.6 5.5 1.3 1.8 0.8 4.2 2.7 5.3 4.3 2 2.8 2 4.8 2.3 116.4 0.2 62.4 0 115.4-0.3 117.7-0.3 2.5-1.6 5.6-3 7.3-1.4 1.7-4.1 3.4-6.3 3.9-2.2 0.6-5 0.6-7 0-1.7-0.5-4.3-2.3-8.2-6.9v-117.5c0-110.1 0.1-117.7 1.7-120.5 1-1.7 3.1-3.7 4.8-4.5 1.6-0.8 4-1.5 5.2-1.5zm71 0c1.3 0 3.8 0.7 5.5 1.5 1.8 0.8 4.1 2.8 5 4.5 1.7 2.8 1.8 10.4 1.8 238l-2.5 3c-1.4 1.7-4.1 3.4-6.3 3.9-2.2 0.6-5 0.6-7 0-1.7-0.5-4.3-2.3-5.7-3.9-1.4-1.7-2.7-4.8-3.1-7.3-0.3-2.3-0.4-55.3-0.2-117.7 0.3-109.8 0.4-113.6 2.2-116.2 1-1.4 3.3-3.3 5-4.2 1.7-0.9 4.1-1.6 5.3-1.6zm72.8 0.5c2.6 0.4 5.1 1.6 10 6.5l0.3 116.3c0.2 78.7-0.1 117.4-0.8 119.9-0.6 2.4-2.1 4.6-4 5.8-1.7 1.1-4.9 2.1-7.3 2.1-2.5 0.1-5.2-0.5-6.7-1.5-1.4-1-3.2-2.7-4-3.9-1.3-1.9-1.5-17.1-1.8-118.7-0.2-109.5-0.1-116.7 1.5-120 1-2 3.3-4.3 5.3-5.3 2.5-1.3 4.7-1.6 7.5-1.2z"/>
</svg>