<svg viewBox="0 0 300 300" xmlns="http://www.w3.org/2000/svg" height="2048" width="2048"><svg xmlns="http://www.w3.org/2000/svg"><svg width="300" height="300"><defs style="transform: scale(1) translate(0px, 0px);"><clipPath id="clip-path-dot-color"><path d="M 19 91v 9h 4.5a 4.5 4.5, 0, 0, 0, 0 -9" transform="rotate(-90,23.5,95.5)"/><path d="M 19 100v 9h 9a 9 9, 0, 0, 0, -9 -9" transform="rotate(180,23.5,104.5)"/><path d="M 19 127v 9h 4.5a 4.5 4.5, 0, 0, 0, 0 -9" transform="rotate(-90,23.5,131.5)"/><rect x="19" y="136" width="9" height="9" transform="rotate(0,23.5,140.5)"/><path d="M 19 145v 9h 9a 9 9, 0, 0, 0, -9 -9" transform="rotate(180,23.5,149.5)"/><rect x="28" y="100" width="9" height="9" transform="rotate(0,32.5,104.5)"/><path d="M 28 109v 9h 9a 9 9, 0, 0, 0, -9 -9" transform="rotate(180,32.5,113.5)"/><path d="M 28 136v 9h 9a 9 9, 0, 0, 0, -9 -9" transform="rotate(0,32.5,140.5)"/><rect x="28" y="145" width="9" height="9" transform="rotate(0,32.5,149.5)"/><rect x="28" y="154" width="9" height="9" transform="rotate(0,32.5,158.5)"/><path d="M 28 163v 9h 4.5a 4.5 4.5, 0, 0, 0, 0 -9" transform="rotate(90,32.5,167.5)"/><circle cx="32.5" cy="203.5" r="4.5" transform="rotate(0,32.5,203.5)"/><path d="M 37 100v 9h 9a 9 9, 0, 0, 0, -9 -9" transform="rotate(0,41.5,104.5)"/><rect x="37" y="109" width="9" height="9" transform="rotate(0,41.5,113.5)"/><path d="M 37 118v 9h 4.5a 4.5 4.5, 0, 0, 0, 0 -9" transform="rotate(90,41.5,122.5)"/><rect x="37" y="145" width="9" height="9" transform="rotate(0,41.5,149.5)"/><path d="M 37 154v 9h 9a 9 9, 0, 0, 0, -9 -9" transform="rotate(90,41.5,158.5)"/><path d="M 37 181v 9h 4.5a 4.5 4.5, 0, 0, 0, 0 -9" transform="rotate(180,41.5,185.5)"/><path d="M 46 127v 9h 4.5a 4.5 4.5, 0, 0, 0, 0 -9" transform="rotate(180,50.5,131.5)"/><path d="M 46 145v 9h 4.5a 4.5 4.5, 0, 0, 0, 0 -9" transform="rotate(0,50.5,149.5)"/><path d="M 46 172v 9h 9a 9 9, 0, 0, 0, -9 -9" transform="rotate(-90,50.5,176.5)"/><rect x="46" y="181" width="9" height="9" transform="rotate(0,50.5,185.5)"/><path d="M 46 199v 9h 4.5a 4.5 4.5, 0, 0, 0, 0 -9" transform="rotate(180,50.5,203.5)"/><path d="M 55 91v 9h 4.5a 4.5 4.5, 0, 0, 0, 0 -9" transform="rotate(180,59.5,95.5)"/><rect x="55" y="127" width="9" height="9" transform="rotate(0,59.5,131.5)"/><rect x="55" y="172" width="9" height="9" transform="rotate(0,59.5,176.5)"/><rect x="55" y="181" width="9" height="9" transform="rotate(0,59.5,185.5)"/><rect x="55" y="190" width="9" height="9" transform="rotate(0,59.5,194.5)"/><rect x="55" y="199" width="9" height="9" transform="rotate(0,59.5,203.5)"/><rect x="64" y="91" width="9" height="9" transform="rotate(0,68.5,95.5)"/><rect x="64" y="100" width="9" height="9" transform="rotate(0,68.5,104.5)"/><rect x="64" y="109" width="9" height="9" transform="rotate(0,68.5,113.5)"/><rect x="64" y="118" width="9" height="9" transform="rotate(0,68.5,122.5)"/><rect x="64" y="127" width="9" height="9" transform="rotate(0,68.5,131.5)"/><path d="M 64 154v 9h 4.5a 4.5 4.5, 0, 0, 0, 0 -9" transform="rotate(-90,68.5,158.5)"/><rect x="64" y="163" width="9" height="9" transform="rotate(0,68.5,167.5)"/><path d="M 64 172v 9h 9a 9 9, 0, 0, 0, -9 -9" transform="rotate(90,68.5,176.5)"/><rect x="64" y="199" width="9" height="9" transform="rotate(0,68.5,203.5)"/><path d="M 73 91v 9h 4.5a 4.5 4.5, 0, 0, 0, 0 -9" transform="rotate(0,77.5,95.5)"/><rect x="73" y="109" width="9" height="9" transform="rotate(0,77.5,113.5)"/><path d="M 73 127v 9h 4.5a 4.5 4.5, 0, 0, 0, 0 -9" transform="rotate(0,77.5,131.5)"/><path d="M 73 145v 9h 4.5a 4.5 4.5, 0, 0, 0, 0 -9" transform="rotate(180,77.5,149.5)"/><path d="M 73 163v 9h 4.5a 4.5 4.5, 0, 0, 0, 0 -9" transform="rotate(0,77.5,167.5)"/><path d="M 73 181v 9h 4.5a 4.5 4.5, 0, 0, 0, 0 -9" transform="rotate(180,77.5,185.5)"/><rect x="73" y="199" width="9" height="9" transform="rotate(0,77.5,203.5)"/><rect x="82" y="109" width="9" height="9" transform="rotate(0,86.5,113.5)"/><path d="M 82 145v 9h 9a 9 9, 0, 0, 0, -9 -9" transform="rotate(0,86.5,149.5)"/><path d="M 82 154v 9h 4.5a 4.5 4.5, 0, 0, 0, 0 -9" transform="rotate(90,86.5,158.5)"/><path d="M 82 172v 9h 4.5a 4.5 4.5, 0, 0, 0, 0 -9" transform="rotate(-90,86.5,176.5)"/><path d="M 82 181v 9h 9a 9 9, 0, 0, 0, -9 -9" transform="rotate(90,86.5,185.5)"/><path d="M 82 199v 9h 4.5a 4.5 4.5, 0, 0, 0, 0 -9" transform="rotate(0,86.5,203.5)"/><path d="M 91 28v 9h 9a 9 9, 0, 0, 0, -9 -9" transform="rotate(-90,95.5,32.5)"/><rect x="91" y="37" width="9" height="9" transform="rotate(0,95.5,41.5)"/><rect x="91" y="46" width="9" height="9" transform="rotate(0,95.5,50.5)"/><rect x="91" y="55" width="9" height="9" transform="rotate(0,95.5,59.5)"/><rect x="91" y="64" width="9" height="9" transform="rotate(0,95.5,68.5)"/><rect x="91" y="73" width="9" height="9" transform="rotate(0,95.5,77.5)"/><path d="M 91 82v 9h 9a 9 9, 0, 0, 0, -9 -9" transform="rotate(180,95.5,86.5)"/><path d="M 91 100v 9h 9a 9 9, 0, 0, 0, -9 -9" transform="rotate(-90,95.5,104.5)"/><rect x="91" y="109" width="9" height="9" transform="rotate(0,95.5,113.5)"/><path d="M 91 127v 9h 9a 9 9, 0, 0, 0, -9 -9" transform="rotate(-90,95.5,131.5)"/><path d="M 91 136v 9h 9a 9 9, 0, 0, 0, -9 -9" transform="rotate(180,95.5,140.5)"/><path d="M 91 163v 9h 4.5a 4.5 4.5, 0, 0, 0, 0 -9" transform="rotate(180,95.5,167.5)"/><path d="M 91 226v 9h 9a 9 9, 0, 0, 0, -9 -9" transform="rotate(-90,95.5,230.5)"/><path d="M 91 235v 9h 9a 9 9, 0, 0, 0, -9 -9" transform="rotate(180,95.5,239.5)"/><path d="M 91 271v 9h 4.5a 4.5 4.5, 0, 0, 0, 0 -9" transform="rotate(180,95.5,275.5)"/><rect x="100" y="28" width="9" height="9" transform="rotate(0,104.5,32.5)"/><path d="M 100 46v 9h 4.5a 4.5 4.5, 0, 0, 0, 0 -9" transform="rotate(0,104.5,50.5)"/><path d="M 100 64v 9h 4.5a 4.5 4.5, 0, 0, 0, 0 -9" transform="rotate(0,104.5,68.5)"/><path d="M 100 82v 9h 9a 9 9, 0, 0, 0, -9 -9" transform="rotate(0,104.5,86.5)"/><rect x="100" y="91" width="9" height="9" transform="rotate(0,104.5,95.5)"/><rect x="100" y="100" width="9" height="9" transform="rotate(0,104.5,104.5)"/><rect x="100" y="109" width="9" height="9" transform="rotate(0,104.5,113.5)"/><rect x="100" y="118" width="9" height="9" transform="rotate(0,104.5,122.5)"/><rect x="100" y="127" width="9" height="9" transform="rotate(0,104.5,131.5)"/><path d="M 100 136v 9h 9a 9 9, 0, 0, 0, -9 -9" transform="rotate(90,104.5,140.5)"/><rect x="100" y="163" width="9" height="9" transform="rotate(0,104.5,167.5)"/><rect x="100" y="172" width="9" height="9" transform="rotate(0,104.5,176.5)"/><path d="M 100 181v 9h 4.5a 4.5 4.5, 0, 0, 0, 0 -9" transform="rotate(90,104.5,185.5)"/><circle cx="104.5" cy="203.5" r="4.5" transform="rotate(0,104.5,203.5)"/><path d="M 100 226v 9h 9a 9 9, 0, 0, 0, -9 -9" transform="rotate(0,104.5,230.5)"/><rect x="100" y="235" width="9" height="9" transform="rotate(0,104.5,239.5)"/><rect x="100" y="244" width="9" height="9" transform="rotate(0,104.5,248.5)"/><path d="M 100 253v 9h 4.5a 4.5 4.5, 0, 0, 0, 0 -9" transform="rotate(90,104.5,257.5)"/><path d="M 100 271v 9h 4.5a 4.5 4.5, 0, 0, 0, 0 -9" transform="rotate(0,104.5,275.5)"/><path d="M 109 19v 9h 9a 9 9, 0, 0, 0, -9 -9" transform="rotate(-90,113.5,23.5)"/><rect x="109" y="28" width="9" height="9" transform="rotate(0,113.5,32.5)"/><path d="M 109 37v 9h 9a 9 9, 0, 0, 0, -9 -9" transform="rotate(180,113.5,41.5)"/><path d="M 109 55v 9h 4.5a 4.5 4.5, 0, 0, 0, 0 -9" transform="rotate(180,113.5,59.5)"/><circle cx="113.5" cy="77.5" r="4.5" transform="rotate(0,113.5,77.5)"/><path d="M 109 91v 9h 4.5a 4.5 4.5, 0, 0, 0, 0 -9" transform="rotate(0,113.5,95.5)"/><path d="M 109 163v 9h 4.5a 4.5 4.5, 0, 0, 0, 0 -9" transform="rotate(0,113.5,167.5)"/><path d="M 109 190v 9h 4.5a 4.5 4.5, 0, 0, 0, 0 -9" transform="rotate(180,113.5,194.5)"/><path d="M 109 208v 9h 9a 9 9, 0, 0, 0, -9 -9" transform="rotate(-90,113.5,212.5)"/><path d="M 109 217v 9h 9a 9 9, 0, 0, 0, -9 -9" transform="rotate(180,113.5,221.5)"/><path d="M 109 244v 9h 4.5a 4.5 4.5, 0, 0, 0, 0 -9" transform="rotate(0,113.5,248.5)"/><path d="M 118 19v 9h 4.5a 4.5 4.5, 0, 0, 0, 0 -9" transform="rotate(0,122.5,23.5)"/><path d="M 118 37v 9h 9a 9 9, 0, 0, 0, -9 -9" transform="rotate(0,122.5,41.5)"/><rect x="118" y="46" width="9" height="9" transform="rotate(0,122.5,50.5)"/><rect x="118" y="55" width="9" height="9" transform="rotate(0,122.5,59.5)"/><path d="M 118 109v 9h 4.5a 4.5 4.5, 0, 0, 0, 0 -9" transform="rotate(-90,122.5,113.5)"/><rect x="118" y="118" width="9" height="9" transform="rotate(0,122.5,122.5)"/><rect x="118" y="127" width="9" height="9" transform="rotate(0,122.5,131.5)"/><rect x="118" y="136" width="9" height="9" transform="rotate(0,122.5,140.5)"/><rect x="118" y="145" width="9" height="9" transform="rotate(0,122.5,149.5)"/><path d="M 118 154v 9h 9a 9 9, 0, 0, 0, -9 -9" transform="rotate(180,122.5,158.5)"/><rect x="118" y="190" width="9" height="9" transform="rotate(0,122.5,194.5)"/><rect x="118" y="199" width="9" height="9" transform="rotate(0,122.5,203.5)"/><rect x="118" y="208" width="9" height="9" transform="rotate(0,122.5,212.5)"/><rect x="118" y="217" width="9" height="9" transform="rotate(0,122.5,221.5)"/><rect x="118" y="226" width="9" height="9" transform="rotate(0,122.5,230.5)"/><path d="M 118 235v 9h 4.5a 4.5 4.5, 0, 0, 0, 0 -9" transform="rotate(90,122.5,239.5)"/><path d="M 118 262v 9h 4.5a 4.5 4.5, 0, 0, 0, 0 -9" transform="rotate(180,122.5,266.5)"/><rect x="127" y="55" width="9" height="9" transform="rotate(0,131.5,59.5)"/><rect x="127" y="64" width="9" height="9" transform="rotate(0,131.5,68.5)"/><path d="M 127 73v 9h 4.5a 4.5 4.5, 0, 0, 0, 0 -9" transform="rotate(90,131.5,77.5)"/><path d="M 127 91v 9h 4.5a 4.5 4.5, 0, 0, 0, 0 -9" transform="rotate(180,131.5,95.5)"/><path d="M 127 127v 9h 9a 9 9, 0, 0, 0, -9 -9" transform="rotate(0,131.5,131.5)"/><path d="M 127 136v 9h 9a 9 9, 0, 0, 0, -9 -9" transform="rotate(90,131.5,140.5)"/><path d="M 127 154v 9h 4.5a 4.5 4.5, 0, 0, 0, 0 -9" transform="rotate(0,131.5,158.5)"/><circle cx="131.5" cy="176.5" r="4.5" transform="rotate(0,131.5,176.5)"/><rect x="127" y="190" width="9" height="9" transform="rotate(0,131.5,194.5)"/><rect x="127" y="208" width="9" height="9" transform="rotate(0,131.5,212.5)"/><path d="M 127 226v 9h 4.5a 4.5 4.5, 0, 0, 0, 0 -9" transform="rotate(0,131.5,230.5)"/><path d="M 127 253v 9h 4.5a 4.5 4.5, 0, 0, 0, 0 -9" transform="rotate(-90,131.5,257.5)"/><rect x="127" y="262" width="9" height="9" transform="rotate(0,131.5,266.5)"/><path d="M 127 271v 9h 9a 9 9, 0, 0, 0, -9 -9" transform="rotate(180,131.5,275.5)"/><rect x="136" y="55" width="9" height="9" transform="rotate(0,140.5,59.5)"/><path d="M 136 64v 9h 9a 9 9, 0, 0, 0, -9 -9" transform="rotate(90,140.5,68.5)"/><path d="M 136 82v 9h 4.5a 4.5 4.5, 0, 0, 0, 0 -9" transform="rotate(-90,140.5,86.5)"/><rect x="136" y="91" width="9" height="9" transform="rotate(0,140.5,95.5)"/><path d="M 136 118v 9h 4.5a 4.5 4.5, 0, 0, 0, 0 -9" transform="rotate(180,140.5,122.5)"/><path d="M 136 190v 9h 9a 9 9, 0, 0, 0, -9 -9" transform="rotate(0,140.5,194.5)"/><rect x="136" y="199" width="9" height="9" transform="rotate(0,140.5,203.5)"/><rect x="136" y="208" width="9" height="9" transform="rotate(0,140.5,212.5)"/><path d="M 136 217v 9h 4.5a 4.5 4.5, 0, 0, 0, 0 -9" transform="rotate(90,140.5,221.5)"/><path d="M 136 235v 9h 4.5a 4.5 4.5, 0, 0, 0, 0 -9" transform="rotate(-90,140.5,239.5)"/><path d="M 136 244v 9h 4.5a 4.5 4.5, 0, 0, 0, 0 -9" transform="rotate(90,140.5,248.5)"/><path d="M 136 262v 9h 9a 9 9, 0, 0, 0, -9 -9" transform="rotate(0,140.5,266.5)"/><path d="M 136 271v 9h 9a 9 9, 0, 0, 0, -9 -9" transform="rotate(90,140.5,275.5)"/><path d="M 145 19v 9h 4.5a 4.5 4.5, 0, 0, 0, 0 -9" transform="rotate(180,149.5,23.5)"/><rect x="145" y="55" width="9" height="9" transform="rotate(0,149.5,59.5)"/><circle cx="149.5" cy="77.5" r="4.5" transform="rotate(0,149.5,77.5)"/><path d="M 145 91v 9h 9a 9 9, 0, 0, 0, -9 -9" transform="rotate(0,149.5,95.5)"/><rect x="145" y="100" width="9" height="9" transform="rotate(0,149.5,104.5)"/><rect x="145" y="109" width="9" height="9" transform="rotate(0,149.5,113.5)"/><rect x="145" y="118" width="9" height="9" transform="rotate(0,149.5,122.5)"/><path d="M 145 145v 9h 9a 9 9, 0, 0, 0, -9 -9" transform="rotate(-90,149.5,149.5)"/><path d="M 145 154v 9h 9a 9 9, 0, 0, 0, -9 -9" transform="rotate(180,149.5,158.5)"/><circle cx="149.5" cy="185.5" r="4.5" transform="rotate(0,149.5,185.5)"/><rect x="145" y="199" width="9" height="9" transform="rotate(0,149.5,203.5)"/><circle cx="149.5" cy="230.5" r="4.5" transform="rotate(0,149.5,230.5)"/><path d="M 154 19v 9h 4.5a 4.5 4.5, 0, 0, 0, 0 -9" transform="rotate(0,158.5,23.5)"/><path d="M 154 46v 9h 4.5a 4.5 4.5, 0, 0, 0, 0 -9" transform="rotate(-90,158.5,50.5)"/><path d="M 154 55v 9h 9a 9 9, 0, 0, 0, -9 -9" transform="rotate(90,158.5,59.5)"/><path d="M 154 82v 9h 4.5a 4.5 4.5, 0, 0, 0, 0 -9" transform="rotate(180,158.5,86.5)"/><path d="M 154 109v 9h 9a 9 9, 0, 0, 0, -9 -9" transform="rotate(0,158.5,113.5)"/><path d="M 154 118v 9h 9a 9 9, 0, 0, 0, -9 -9" transform="rotate(90,158.5,122.5)"/><rect x="154" y="145" width="9" height="9" transform="rotate(0,158.5,149.5)"/><rect x="154" y="154" width="9" height="9" transform="rotate(0,158.5,158.5)"/><path d="M 154 163v 9h 4.5a 4.5 4.5, 0, 0, 0, 0 -9" transform="rotate(90,158.5,167.5)"/><path d="M 154 190v 9h 4.5a 4.5 4.5, 0, 0, 0, 0 -9" transform="rotate(-90,158.5,194.5)"/><rect x="154" y="199" width="9" height="9" transform="rotate(0,158.5,203.5)"/><rect x="154" y="208" width="9" height="9" transform="rotate(0,158.5,212.5)"/><path d="M 154 217v 9h 4.5a 4.5 4.5, 0, 0, 0, 0 -9" transform="rotate(90,158.5,221.5)"/><path d="M 154 235v 9h 4.5a 4.5 4.5, 0, 0, 0, 0 -9" transform="rotate(-90,158.5,239.5)"/><path d="M 154 244v 9h 9a 9 9, 0, 0, 0, -9 -9" transform="rotate(180,158.5,248.5)"/><path d="M 154 271v 9h 4.5a 4.5 4.5, 0, 0, 0, 0 -9" transform="rotate(180,158.5,275.5)"/><path d="M 163 73v 9h 4.5a 4.5 4.5, 0, 0, 0, 0 -9" transform="rotate(-90,167.5,77.5)"/><path d="M 163 82v 9h 9a 9 9, 0, 0, 0, -9 -9" transform="rotate(90,167.5,86.5)"/><path d="M 163 136v 9h 9a 9 9, 0, 0, 0, -9 -9" transform="rotate(-90,167.5,140.5)"/><rect x="163" y="145" width="9" height="9" transform="rotate(0,167.5,149.5)"/><rect x="163" y="154" width="9" height="9" transform="rotate(0,167.5,158.5)"/><circle cx="167.5" cy="185.5" r="4.5" transform="rotate(0,167.5,185.5)"/><rect x="163" y="244" width="9" height="9" transform="rotate(0,167.5,248.5)"/><path d="M 163 253v 9h 9a 9 9, 0, 0, 0, -9 -9" transform="rotate(180,167.5,257.5)"/><rect x="163" y="271" width="9" height="9" transform="rotate(0,167.5,275.5)"/><path d="M 172 19v 9h 9a 9 9, 0, 0, 0, -9 -9" transform="rotate(-90,176.5,23.5)"/><rect x="172" y="28" width="9" height="9" transform="rotate(0,176.5,32.5)"/><path d="M 172 37v 9h 9a 9 9, 0, 0, 0, -9 -9" transform="rotate(180,176.5,41.5)"/><path d="M 172 55v 9h 4.5a 4.5 4.5, 0, 0, 0, 0 -9" transform="rotate(180,176.5,59.5)"/><path d="M 172 100v 9h 4.5a 4.5 4.5, 0, 0, 0, 0 -9" transform="rotate(-90,176.5,104.5)"/><path d="M 172 109v 9h 4.5a 4.5 4.5, 0, 0, 0, 0 -9" transform="rotate(90,176.5,113.5)"/><path d="M 172 127v 9h 9a 9 9, 0, 0, 0, -9 -9" transform="rotate(-90,176.5,131.5)"/><rect x="172" y="136" width="9" height="9" transform="rotate(0,176.5,140.5)"/><path d="M 172 154v 9h 9a 9 9, 0, 0, 0, -9 -9" transform="rotate(0,176.5,158.5)"/><path d="M 172 163v 9h 4.5a 4.5 4.5, 0, 0, 0, 0 -9" transform="rotate(90,176.5,167.5)"/><path d="M 172 208v 9h 4.5a 4.5 4.5, 0, 0, 0, 0 -9" transform="rotate(-90,176.5,212.5)"/><rect x="172" y="217" width="9" height="9" transform="rotate(0,176.5,221.5)"/><rect x="172" y="226" width="9" height="9" transform="rotate(0,176.5,230.5)"/><rect x="172" y="235" width="9" height="9" transform="rotate(0,176.5,239.5)"/><rect x="172" y="244" width="9" height="9" transform="rotate(0,176.5,248.5)"/><rect x="172" y="253" width="9" height="9" transform="rotate(0,176.5,257.5)"/><rect x="172" y="262" width="9" height="9" transform="rotate(0,176.5,266.5)"/><path d="M 172 271v 9h 9a 9 9, 0, 0, 0, -9 -9" transform="rotate(90,176.5,275.5)"/><rect x="181" y="19" width="9" height="9" transform="rotate(0,185.5,23.5)"/><path d="M 181 37v 9h 4.5a 4.5 4.5, 0, 0, 0, 0 -9" transform="rotate(0,185.5,41.5)"/><rect x="181" y="55" width="9" height="9" transform="rotate(0,185.5,59.5)"/><rect x="181" y="64" width="9" height="9" transform="rotate(0,185.5,68.5)"/><rect x="181" y="73" width="9" height="9" transform="rotate(0,185.5,77.5)"/><rect x="181" y="82" width="9" height="9" transform="rotate(0,185.5,86.5)"/><path d="M 181 91v 9h 9a 9 9, 0, 0, 0, -9 -9" transform="rotate(180,185.5,95.5)"/><rect x="181" y="127" width="9" height="9" transform="rotate(0,185.5,131.5)"/><rect x="181" y="136" width="9" height="9" transform="rotate(0,185.5,140.5)"/><path d="M 181 145v 9h 4.5a 4.5 4.5, 0, 0, 0, 0 -9" transform="rotate(90,185.5,149.5)"/><circle cx="185.5" cy="185.5" r="4.5" transform="rotate(0,185.5,185.5)"/><circle cx="185.5" cy="203.5" r="4.5" transform="rotate(0,185.5,203.5)"/><rect x="181" y="217" width="9" height="9" transform="rotate(0,185.5,221.5)"/><rect x="181" y="226" width="9" height="9" transform="rotate(0,185.5,230.5)"/><rect x="181" y="235" width="9" height="9" transform="rotate(0,185.5,239.5)"/><rect x="181" y="244" width="9" height="9" transform="rotate(0,185.5,248.5)"/><path d="M 181 253v 9h 9a 9 9, 0, 0, 0, -9 -9" transform="rotate(90,185.5,257.5)"/><rect x="190" y="19" width="9" height="9" transform="rotate(0,194.5,23.5)"/><path d="M 190 46v 9h 4.5a 4.5 4.5, 0, 0, 0, 0 -9" transform="rotate(-90,194.5,50.5)"/><path d="M 190 55v 9h 9a 9 9, 0, 0, 0, -9 -9" transform="rotate(90,194.5,59.5)"/><path d="M 190 82v 9h 9a 9 9, 0, 0, 0, -9 -9" transform="rotate(0,194.5,86.5)"/><rect x="190" y="91" width="9" height="9" transform="rotate(0,194.5,95.5)"/><path d="M 190 109v 9h 9a 9 9, 0, 0, 0, -9 -9" transform="rotate(-90,194.5,113.5)"/><rect x="190" y="118" width="9" height="9" transform="rotate(0,194.5,122.5)"/><rect x="190" y="127" width="9" height="9" transform="rotate(0,194.5,131.5)"/><path d="M 190 136v 9h 9a 9 9, 0, 0, 0, -9 -9" transform="rotate(90,194.5,140.5)"/><circle cx="194.5" cy="167.5" r="4.5" transform="rotate(0,194.5,167.5)"/><rect x="190" y="217" width="9" height="9" transform="rotate(0,194.5,221.5)"/><rect x="190" y="235" width="9" height="9" transform="rotate(0,194.5,239.5)"/><path d="M 190 244v 9h 9a 9 9, 0, 0, 0, -9 -9" transform="rotate(90,194.5,248.5)"/><path d="M 199 19v 9h 4.5a 4.5 4.5, 0, 0, 0, 0 -9" transform="rotate(0,203.5,23.5)"/><path d="M 199 64v 9h 4.5a 4.5 4.5, 0, 0, 0, 0 -9" transform="rotate(-90,203.5,68.5)"/><path d="M 199 73v 9h 4.5a 4.5 4.5, 0, 0, 0, 0 -9" transform="rotate(90,203.5,77.5)"/><rect x="199" y="91" width="9" height="9" transform="rotate(0,203.5,95.5)"/><path d="M 199 109v 9h 4.5a 4.5 4.5, 0, 0, 0, 0 -9" transform="rotate(0,203.5,113.5)"/><circle cx="203.5" cy="149.5" r="4.5" transform="rotate(0,203.5,149.5)"/><path d="M 199 172v 9h 4.5a 4.5 4.5, 0, 0, 0, 0 -9" transform="rotate(180,203.5,176.5)"/><path d="M 199 199v 9h 9a 9 9, 0, 0, 0, -9 -9" transform="rotate(-90,203.5,203.5)"/><rect x="199" y="208" width="9" height="9" transform="rotate(0,203.5,212.5)"/><rect x="199" y="217" width="9" height="9" transform="rotate(0,203.5,221.5)"/><rect x="199" y="226" width="9" height="9" transform="rotate(0,203.5,230.5)"/><rect x="199" y="235" width="9" height="9" transform="rotate(0,203.5,239.5)"/><path d="M 199 253v 9h 4.5a 4.5 4.5, 0, 0, 0, 0 -9" transform="rotate(-90,203.5,257.5)"/><rect x="199" y="262" width="9" height="9" transform="rotate(0,203.5,266.5)"/><path d="M 199 271v 9h 9a 9 9, 0, 0, 0, -9 -9" transform="rotate(180,203.5,275.5)"/><rect x="208" y="91" width="9" height="9" transform="rotate(0,212.5,95.5)"/><path d="M 208 100v 9h 4.5a 4.5 4.5, 0, 0, 0, 0 -9" transform="rotate(90,212.5,104.5)"/><path d="M 208 118v 9h 4.5a 4.5 4.5, 0, 0, 0, 0 -9" transform="rotate(180,212.5,122.5)"/><path d="M 208 163v 9h 4.5a 4.5 4.5, 0, 0, 0, 0 -9" transform="rotate(-90,212.5,167.5)"/><rect x="208" y="172" width="9" height="9" transform="rotate(0,212.5,176.5)"/><rect x="208" y="199" width="9" height="9" transform="rotate(0,212.5,203.5)"/><rect x="208" y="235" width="9" height="9" transform="rotate(0,212.5,239.5)"/><path d="M 208 244v 9h 4.5a 4.5 4.5, 0, 0, 0, 0 -9" transform="rotate(90,212.5,248.5)"/><path d="M 208 262v 9h 9a 9 9, 0, 0, 0, -9 -9" transform="rotate(0,212.5,266.5)"/><path d="M 208 271v 9h 9a 9 9, 0, 0, 0, -9 -9" transform="rotate(90,212.5,275.5)"/><rect x="217" y="91" width="9" height="9" transform="rotate(0,221.5,95.5)"/><path d="M 217 118v 9h 4.5a 4.5 4.5, 0, 0, 0, 0 -9" transform="rotate(0,221.5,122.5)"/><circle cx="221.5" cy="140.5" r="4.5" transform="rotate(0,221.5,140.5)"/><circle cx="221.5" cy="158.5" r="4.5" transform="rotate(0,221.5,158.5)"/><rect x="217" y="172" width="9" height="9" transform="rotate(0,221.5,176.5)"/><path d="M 217 190v 9h 9a 9 9, 0, 0, 0, -9 -9" transform="rotate(-90,221.5,194.5)"/><rect x="217" y="199" width="9" height="9" transform="rotate(0,221.5,203.5)"/><circle cx="221.5" cy="221.5" r="4.5" transform="rotate(0,221.5,221.5)"/><rect x="217" y="235" width="9" height="9" transform="rotate(0,221.5,239.5)"/><rect x="226" y="91" width="9" height="9" transform="rotate(0,230.5,95.5)"/><path d="M 226 100v 9h 4.5a 4.5 4.5, 0, 0, 0, 0 -9" transform="rotate(90,230.5,104.5)"/><path d="M 226 127v 9h 4.5a 4.5 4.5, 0, 0, 0, 0 -9" transform="rotate(180,230.5,131.5)"/><path d="M 226 163v 9h 9a 9 9, 0, 0, 0, -9 -9" transform="rotate(-90,230.5,167.5)"/><rect x="226" y="172" width="9" height="9" transform="rotate(0,230.5,176.5)"/><rect x="226" y="181" width="9" height="9" transform="rotate(0,230.5,185.5)"/><rect x="226" y="190" width="9" height="9" transform="rotate(0,230.5,194.5)"/><rect x="226" y="199" width="9" height="9" transform="rotate(0,230.5,203.5)"/><rect x="226" y="235" width="9" height="9" transform="rotate(0,230.5,239.5)"/><path d="M 226 244v 9h 9a 9 9, 0, 0, 0, -9 -9" transform="rotate(180,230.5,248.5)"/><circle cx="230.5" cy="275.5" r="4.5" transform="rotate(0,230.5,275.5)"/><rect x="235" y="91" width="9" height="9" transform="rotate(0,239.5,95.5)"/><path d="M 235 127v 9h 4.5a 4.5 4.5, 0, 0, 0, 0 -9" transform="rotate(0,239.5,131.5)"/><path d="M 235 163v 9h 4.5a 4.5 4.5, 0, 0, 0, 0 -9" transform="rotate(0,239.5,167.5)"/><rect x="235" y="199" width="9" height="9" transform="rotate(0,239.5,203.5)"/><rect x="235" y="208" width="9" height="9" transform="rotate(0,239.5,212.5)"/><rect x="235" y="217" width="9" height="9" transform="rotate(0,239.5,221.5)"/><rect x="235" y="226" width="9" height="9" transform="rotate(0,239.5,230.5)"/><rect x="235" y="235" width="9" height="9" transform="rotate(0,239.5,239.5)"/><rect x="235" y="244" width="9" height="9" transform="rotate(0,239.5,248.5)"/><rect x="235" y="253" width="9" height="9" transform="rotate(0,239.5,257.5)"/><path d="M 235 262v 9h 4.5a 4.5 4.5, 0, 0, 0, 0 -9" transform="rotate(90,239.5,266.5)"/><rect x="244" y="91" width="9" height="9" transform="rotate(0,248.5,95.5)"/><rect x="244" y="100" width="9" height="9" transform="rotate(0,248.5,104.5)"/><path d="M 244 109v 9h 9a 9 9, 0, 0, 0, -9 -9" transform="rotate(180,248.5,113.5)"/><path d="M 244 145v 9h 9a 9 9, 0, 0, 0, -9 -9" transform="rotate(-90,248.5,149.5)"/><path d="M 244 154v 9h 9a 9 9, 0, 0, 0, -9 -9" transform="rotate(180,248.5,158.5)"/><path d="M 244 181v 9h 9a 9 9, 0, 0, 0, -9 -9" transform="rotate(-90,248.5,185.5)"/><rect x="244" y="190" width="9" height="9" transform="rotate(0,248.5,194.5)"/><rect x="244" y="199" width="9" height="9" transform="rotate(0,248.5,203.5)"/><rect x="244" y="208" width="9" height="9" transform="rotate(0,248.5,212.5)"/><rect x="244" y="226" width="9" height="9" transform="rotate(0,248.5,230.5)"/><rect x="253" y="91" width="9" height="9" transform="rotate(0,257.5,95.5)"/><rect x="253" y="100" width="9" height="9" transform="rotate(0,257.5,104.5)"/><rect x="253" y="109" width="9" height="9" transform="rotate(0,257.5,113.5)"/><rect x="253" y="118" width="9" height="9" transform="rotate(0,257.5,122.5)"/><rect x="253" y="127" width="9" height="9" transform="rotate(0,257.5,131.5)"/><rect x="253" y="136" width="9" height="9" transform="rotate(0,257.5,140.5)"/><rect x="253" y="145" width="9" height="9" transform="rotate(0,257.5,149.5)"/><rect x="253" y="154" width="9" height="9" transform="rotate(0,257.5,158.5)"/><rect x="253" y="163" width="9" height="9" transform="rotate(0,257.5,167.5)"/><rect x="253" y="172" width="9" height="9" transform="rotate(0,257.5,176.5)"/><rect x="253" y="181" width="9" height="9" transform="rotate(0,257.5,185.5)"/><rect x="253" y="190" width="9" height="9" transform="rotate(0,257.5,194.5)"/><rect x="253" y="199" width="9" height="9" transform="rotate(0,257.5,203.5)"/><rect x="253" y="208" width="9" height="9" transform="rotate(0,257.5,212.5)"/><rect x="253" y="217" width="9" height="9" transform="rotate(0,257.5,221.5)"/><rect x="253" y="226" width="9" height="9" transform="rotate(0,257.5,230.5)"/><path d="M 253 235v 9h 9a 9 9, 0, 0, 0, -9 -9" transform="rotate(180,257.5,239.5)"/><path d="M 253 253v 9h 4.5a 4.5 4.5, 0, 0, 0, 0 -9" transform="rotate(-90,257.5,257.5)"/><path d="M 253 262v 9h 9a 9 9, 0, 0, 0, -9 -9" transform="rotate(180,257.5,266.5)"/><path d="M 262 91v 9h 9a 9 9, 0, 0, 0, -9 -9" transform="rotate(0,266.5,95.5)"/><path d="M 262 100v 9h 9a 9 9, 0, 0, 0, -9 -9" transform="rotate(90,266.5,104.5)"/><path d="M 262 118v 9h 4.5a 4.5 4.5, 0, 0, 0, 0 -9" transform="rotate(0,266.5,122.5)"/><path d="M 262 136v 9h 4.5a 4.5 4.5, 0, 0, 0, 0 -9" transform="rotate(0,266.5,140.5)"/><rect x="262" y="154" width="9" height="9" transform="rotate(0,266.5,158.5)"/><rect x="262" y="181" width="9" height="9" transform="rotate(0,266.5,185.5)"/><path d="M 262 199v 9h 4.5a 4.5 4.5, 0, 0, 0, 0 -9" transform="rotate(0,266.5,203.5)"/><rect x="262" y="235" width="9" height="9" transform="rotate(0,266.5,239.5)"/><path d="M 262 244v 9h 9a 9 9, 0, 0, 0, -9 -9" transform="rotate(180,266.5,248.5)"/><path d="M 262 262v 9h 4.5a 4.5 4.5, 0, 0, 0, 0 -9" transform="rotate(0,266.5,266.5)"/><circle cx="275.5" cy="113.5" r="4.5" transform="rotate(0,275.5,113.5)"/><path d="M 271 145v 9h 4.5a 4.5 4.5, 0, 0, 0, 0 -9" transform="rotate(-90,275.5,149.5)"/><path d="M 271 154v 9h 9a 9 9, 0, 0, 0, -9 -9" transform="rotate(90,275.5,158.5)"/><path d="M 271 172v 9h 4.5a 4.5 4.5, 0, 0, 0, 0 -9" transform="rotate(-90,275.5,176.5)"/><rect x="271" y="181" width="9" height="9" transform="rotate(0,275.5,185.5)"/><path d="M 271 190v 9h 4.5a 4.5 4.5, 0, 0, 0, 0 -9" transform="rotate(90,275.5,194.5)"/><circle cx="275.5" cy="221.5" r="4.5" transform="rotate(0,275.5,221.5)"/><path d="M 271 235v 9h 9a 9 9, 0, 0, 0, -9 -9" transform="rotate(0,275.5,239.5)"/><rect x="271" y="244" width="9" height="9" transform="rotate(0,275.5,248.5)"/><path d="M 271 253v 9h 4.5a 4.5 4.5, 0, 0, 0, 0 -9" transform="rotate(90,275.5,257.5)"/></clipPath><clipPath id="clip-path-corners-square-color-0-0"><path clip-rule="evenodd" d="M 19 19v 63h 63v -63zM 28 28h 45v 45h -45z" transform="rotate(0,50.5,50.5)"/></clipPath><clipPath id="clip-path-corners-dot-color-0-0"><rect x="37" y="37" width="27" height="27" transform="rotate(0,50.5,50.5)"/></clipPath><clipPath id="clip-path-corners-square-color-1-0"><path clip-rule="evenodd" d="M 217 19v 63h 63v -63zM 226 28h 45v 45h -45z" transform="rotate(90,248.5,50.5)"/></clipPath><clipPath id="clip-path-corners-dot-color-1-0"><rect x="235" y="37" width="27" height="27" transform="rotate(90,248.5,50.5)"/></clipPath><clipPath id="clip-path-corners-square-color-0-1"><path clip-rule="evenodd" d="M 19 217v 63h 63v -63zM 28 226h 45v 45h -45z" transform="rotate(-90,50.5,248.5)"/></clipPath><clipPath id="clip-path-corners-dot-color-0-1"><rect x="37" y="235" width="27" height="27" transform="rotate(-90,50.5,248.5)"/></clipPath></defs><rect x="0" y="0" height="300" width="300" clip-path="url('#clip-path-background-color')" fill="#ffffff" style="transform: scale(1) translate(0px, 0px);"/><rect x="0" y="0" height="300" width="300" clip-path="url('#clip-path-dot-color')" fill="#000000" style="transform: scale(1) translate(0px, 0px);"/><rect x="19" y="19" height="63" width="63" clip-path="url('#clip-path-corners-square-color-0-0')" fill="#000000" style="transform: scale(1) translate(0px, 0px);"/><rect x="37" y="37" height="27" width="27" clip-path="url('#clip-path-corners-dot-color-0-0')" fill="#000000" style="transform: scale(1) translate(0px, 0px);"/><rect x="217" y="19" height="63" width="63" clip-path="url('#clip-path-corners-square-color-1-0')" fill="#000000" style="transform: scale(1) translate(0px, 0px);"/><rect x="235" y="37" height="27" width="27" clip-path="url('#clip-path-corners-dot-color-1-0')" fill="#000000" style="transform: scale(1) translate(0px, 0px);"/><rect x="19" y="217" height="63" width="63" clip-path="url('#clip-path-corners-square-color-0-1')" fill="#000000" style="transform: scale(1) translate(0px, 0px);"/><rect x="37" y="235" height="27" width="27" clip-path="url('#clip-path-corners-dot-color-0-1')" fill="#000000" style="transform: scale(1) translate(0px, 0px);"/></svg></svg></svg>