<svg version="1.2" xmlns="http://www.w3.org/2000/svg" viewBox="0 0 512 512" width="512" height="512">
	<title>image</title>
	<style>
		.s0 { fill: #2985e1 } 
	</style>
	<path id="Path 0" fill-rule="evenodd" class="s0" d="m255.8 20.1c126.9-0.1 135.6 0 140.9 1.7 3.2 1 8.2 3.3 11.2 5.2 3 1.9 7.3 5.6 9.5 8.1 2.4 2.7 9.8 15.4 32.1 57.7l11.5 0.4c8.4 0.4 13 1.1 17 2.6 3 1.1 8.2 4 11.5 6.4 3.8 2.8 7.6 6.8 10.3 10.8 2.4 3.6 5.2 9.4 6.3 13 1.7 5.8 1.9 9.5 1.9 33.2 0 23.7-0.2 27.2-1.8 29.8-0.9 1.7-3.2 3.7-5 4.5-1.7 0.8-4.6 1.5-6.2 1.5-1.6 0-4.6-0.8-6.6-1.8-2-0.9-4.2-2.6-4.8-3.7-0.7-1.3-1.3-11.8-1.6-28.5-0.5-25-0.6-26.7-2.8-30.8-1.2-2.3-3.9-5.3-6-6.7-2-1.3-5.7-2.9-8.2-3.4-2.5-0.6-5.7-1.1-10-1.1l-0.3 144.8c-0.2 113.4-0.6 145.8-1.6 149.7-0.7 2.7-3.2 9.1-5.6 14-2.6 5.4-6.5 11.4-9.7 14.9-2.9 3.2-8 7.8-11.3 10.2-3.3 2.3-8.5 5.4-11.5 6.7-3 1.3-8.8 3.2-12.8 4.1-3.9 0.9-9 1.6-15.2 1.6v6c0 3.3-0.5 8.2-1 11-0.7 3.6-1.8 5.7-4 7.5-2.4 2-4.1 2.5-8.5 2.5-4.4 0-6.1-0.5-8.5-2.5-1.7-1.4-3.4-4.2-4-6.3-0.5-2-1-7-1-18.2h-208v8.2c0 6.1-0.5 9.4-2 12.3-1 2.2-3 4.6-4.4 5.2-1.4 0.7-4.7 1.3-7.4 1.3-2.6 0-5.7-0.7-7-1.5-1.2-0.8-2.9-3-3.8-4.8-1-1.9-1.9-6.7-2.6-20.2l-7.2-0.7c-3.9-0.4-10-1.7-13.6-2.9-3.6-1.1-9.4-3.7-13-5.6-3.8-2.1-9.6-6.7-14-11.2-5.3-5.3-8.8-10-11.7-15.6-2.3-4.4-5-10.9-6-14.5-1.7-6.1-1.8-13.1-1.8-125.6 0-104 0.2-119.4 1.5-121.9 0.8-1.5 2.8-3.4 4.5-4.3 1.6-0.8 4.8-1.5 7-1.5 2.2 0 5.5 0.7 7.2 1.6 2 1 3.9 3.1 4.8 5.2 1.3 2.9 1.5 11 1.5 98l26.8 26c20.3 19.7 28.1 26.6 32.2 28.7 3 1.5 8.2 3.4 11.5 4.2 5.3 1.4 17.8 1.6 101.5 1.6 83.5 0 96.3-0.2 101.5-1.6 3.3-0.8 8.2-2.7 11-4.1 2.7-1.4 7-4.2 9.5-6.3 2.5-2 5.5-4.2 6.7-4.9 1.3-0.6 3.6-1.1 5.3-1.1 1.6 0 4.3 0.7 6 1.5 1.6 0.8 3.9 3 5 4.7 1.1 1.8 2 4.8 2 6.5 0 1.8-0.6 4.8-1.3 6.5-0.8 1.8-3.8 5.5-6.8 8.2-3 2.6-8.6 6.3-12.4 8.1-3.9 1.9-11.1 4.6-25 9h-101.5c-83.1 0-102.5-0.3-107-1.4-3-0.7-8.2-2.6-11.5-4-3.3-1.5-9.6-5.2-14-8.1-4.4-3-15.1-12.5-39.6-36.5l0.1 49.5c0 38 0.3 50.7 1.4 54.5 0.7 2.7 2.3 7 3.6 9.5 1.3 2.5 4.6 6.8 7.4 9.6 2.8 2.7 7.6 6.2 10.6 7.7 3 1.4 8.4 3.1 12 3.7 4.2 0.6 52.5 1 137 1 84.5 0 132.8-0.4 137-1 3.6-0.6 8.7-2.1 11.5-3.5 2.7-1.3 7.4-4.5 10.4-7.2 3.7-3.3 6.4-7.1 12.6-19.7l0.5-288.6-382.5 0.5-4.8 2.8c-3.1 1.8-5.6 4.3-10.2 12.2l-0.5 26.5c-0.4 21.3-0.8 26.9-2 28.7-0.8 1.2-2.7 2.9-4.3 3.8-1.5 0.8-4.8 1.5-7.5 1.5-4.1-0.1-5.2-0.6-12.1-7.5v-27.5c-0.1-19.9 0.3-28.9 1.3-32.5 0.7-2.7 2.6-7.5 4.1-10.5 1.6-3 5.1-7.7 7.9-10.5 2.8-2.7 7.3-6.2 10.1-7.7 2.7-1.5 7.7-3.4 11-4.2 3.3-0.9 10-1.6 24-1.6l14-26.7c8.4-16.1 15.6-28.5 18.1-31.2 2.2-2.5 6.5-6.2 9.5-8.1 3-1.9 7.9-4.2 10.9-5.2 5.1-1.6 15.5-1.7 140.7-1.7zm-140 32.2c-2.9 3-7.1 10.1-13.5 22.5l-9.2 18.2h326c-15.6-30.6-19.8-37.7-22.8-40.7-2.5-2.5-5.7-4.7-8-5.3-2.4-0.6-50.1-1-132.7-0.9-74.1 0-130.4 0.5-132.3 1-1.7 0.5-5.1 2.9-7.5 5.2zm22.8 325.7q5 0 9.4 2.2c3.1 1.6 5.1 3.6 6.8 6.8 1.5 2.8 2.3 6.2 2.3 9 0 2.7-0.9 6.3-2.2 9-1.7 3.3-3.5 5.1-6.8 6.8-2.8 1.4-6.3 2.2-9.3 2.2-2.6 0-6.2-0.6-8-1.4-1.7-0.7-4.4-2.6-5.9-4.2-1.5-1.6-3.3-5-4-7.6-1.1-4-1.1-5.6 0-9.5 0.7-2.7 2.3-6.1 3.5-7.8 1.3-1.6 3.8-3.5 5.7-4.2 1.9-0.7 5.7-1.2 8.5-1.3zm236.2 0.2c4.3 0.2 7 0.9 9 2.4 1.5 1.1 3.8 3.6 5.1 5.5 1.2 1.9 2.5 5 2.9 6.9 0.3 1.9 0.1 5.5-0.6 8-0.7 2.5-2.4 5.8-3.9 7.4-1.5 1.6-4.2 3.5-6 4.2-1.7 0.8-5.3 1.4-8 1.4-2.9 0-6.4-0.8-9.2-2.2-3.3-1.7-5.1-3.5-6.8-6.8-1.3-2.7-2.2-6.3-2.2-9 0-2.7 0.9-6.3 2.2-9 1.7-3.2 3.6-5.1 6.8-6.8 3.6-1.9 5.7-2.3 10.7-2zm-119 4.8c32.1 0 40.9 0.3 43 1.4 1.6 0.7 3.6 3 4.5 5 1 2 1.8 5.2 1.8 7.1 0 1.9-0.7 4.9-1.5 6.5-0.8 1.7-2.9 3.7-4.5 4.5-2.5 1.3-9.4 1.5-43 1.5-33.6 0-40.5-0.2-43-1.5-1.7-0.8-3.7-2.8-4.5-4.5-0.8-1.6-1.5-4.9-1.5-7.2 0-2.7 0.8-5.4 2-7.2 1.1-1.6 3-3.5 4.3-4.2 1.7-1 11.6-1.3 42.4-1.4z"/>
</svg>