<svg version="1.2" xmlns="http://www.w3.org/2000/svg" viewBox="0 0 284 227" width="284" height="227">
	<title>busNowLogoWhieAndBlack</title>
	<style>
		.s0 { fill: #ffffff } 
	</style>
	<path id="Path 0" class="s0" d="m71 6.9c-3 0.9-9.3 3.9-13.9 6.6-5.6 3.3-10.5 7.2-14.4 11.5-3.6 4-7.6 9.9-10.3 15.5-2.5 5-4.8 10.6-5.1 12.5-0.5 2.6-2.9 5.9-9.8 13-5.1 5.2-9.5 10.3-9.8 11.3-0.4 0.9-0.2 2.9 0.4 4.4 0.6 1.6 1.6 3.1 2.2 3.5 0.7 0.4 7.8 0.8 16 0.8h14.7c-0.8 4.3-1.3 12.2-1.6 20.5-0.5 12.6-0.3 16.5 1.4 24.5 1 5.2 3.2 12.7 4.7 16.5 1.6 3.8 4.4 9.7 6.4 13 2 3.3 6.2 9.2 9.3 13 3.2 3.8 8.8 9.5 12.5 12.6 3.7 3 9.7 7.3 13.3 9.3 3.6 2.1 8.1 4.5 10 5.3 1.9 0.8 7.1 2.6 11.5 4 7.2 2.2 9.9 2.5 27 2.6 17 0.2 19.8-0.1 26.8-2.1 4.2-1.2 10.7-3.6 14.5-5.3 3.7-1.6 7.9-4.2 9.5-5.7 1.5-1.5 2.7-3.7 2.7-5 0-1.2-3.3-7-7.3-12.9-3.9-5.9-21-30.1-38-53.8-16.9-23.6-32.1-44.5-33.7-46.3-2-2.1-3.9-3.2-5.7-3.2-1.6 0-3.8 0.9-5 2.2-1.3 1.3-2.3 3.6-2.3 5.3 0 1.6 1.2 4.8 2.7 7 1.5 2.2 13.8 19.5 27.3 38.5 13.6 19 28.8 40.2 33.8 47.2 5.1 7.1 9.1 13 9 13.2-0.2 0.2-4.4 1.6-9.3 3.1-6 1.8-12.5 2.8-19.5 3.2-6.5 0.4-13.6 0.1-18.5-0.6-4.4-0.7-11.6-2.7-16-4.4-4.4-1.7-11.2-5.2-15-7.8-3.8-2.6-10.4-8.3-14.6-12.6-4.2-4.3-9.4-11-11.6-14.8-2.3-3.9-5.6-11.3-7.3-16.5-1.8-5.2-3.6-12.9-4-17-0.4-4.1-0.3-11.1 0.2-15.5 0.5-4.4 1.5-10.5 2.3-13.5 0.8-3 1.5-7.5 1.5-10 0-3.1-0.5-5.1-1.7-6.2-1.5-1.4-3.7-1.8-12-1.8h-10.3c5.1-7.4 7.6-12.7 8.9-16.5 1.3-3.9 3.5-9 4.9-11.5 1.4-2.5 5.3-7.1 8.7-10.4 3.3-3.2 8-6.9 10.5-8.1 2.5-1.2 7-3 10-4 4.3-1.4 7.8-1.7 16-1.4 9.4 0.4 11.3 0.8 17.5 3.8 3.9 1.8 8.5 4.9 10.3 6.9 1.9 2.1 7.1 8.2 11.6 13.7 4.5 5.5 16.7 21 27.2 34.5 10.4 13.5 30.7 39.6 44.9 58 14.2 18.4 32.7 42.3 41.1 53 8.4 10.7 16.6 21 18.3 22.7 2.2 2.3 4 3.3 6.1 3.3 1.7 0 3.9-0.9 5-2 1.2-1.2 2-3.3 2-5.3 0-2.2-1.3-4.9-4.3-8.8-2.3-3-6.2-8.2-8.7-11.5-2.4-3.2-7-9.1-10.1-12.9-3.1-3.9-15.7-20.1-27.9-36-12.3-16-26.6-34.4-31.7-41-5-6.6-15.1-19.7-22.4-29-7.2-9.4-18.1-23.3-24.3-31-6.1-7.7-12.9-16-15.1-18.4-2.2-2.4-6.7-5.8-10-7.6-3.3-1.9-8.8-4.3-12.2-5.4-5.2-1.7-8.6-2.1-20.1-2-9.9 0.1-15.2 0.6-19.2 1.8z"/>
</svg>