<svg version="1.2" xmlns="http://www.w3.org/2000/svg" viewBox="0 0 1048 227" width="1048" height="227">
	<title>busNowLogo</title>
	<style>
		.s0 { fill: #ffffff } 
		.s1 { fill: #000000 } 
	</style>
	<g id="Path 0">
		<path id="Path 0" fill-rule="evenodd" class="s0" d="m304.5 30.2c8.3 0 20.2 0.3 26.5 0.7 7.5 0.6 13.4 1.6 17 2.9 3.3 1.3 7.9 4.3 11.5 7.5 3.3 3 7.2 7.6 8.7 10.3 1.6 2.9 3 7.3 3.4 10.9 0.4 3.4 0.2 8.3-0.5 11.3-0.6 2.8-2.2 6.9-6.2 12.7l3.3 6.4c3 5.9 3.3 7.3 3.3 15 0 6.5-0.5 9.7-2.1 13.1-1.1 2.5-4.3 6.8-7 9.5-2.8 2.8-8.6 7-20.9 14l-28-0.1c-15.4 0-31.4-0.4-35.5-0.8-4.1-0.3-8.5-1.3-9.8-2.1-1.2-0.8-3-2.7-3.9-4.3-1.5-2.4-1.8-7.7-2.7-95.7l2.7-3.7c1.5-2.1 3.7-4.3 5-5 1.2-0.7 6.3-1.5 11.2-1.9 4.9-0.3 15.8-0.6 24-0.7zm-9.8 34.1c-0.4 1.7-0.7 13.9-0.7 27v23.7c15.9 0 25.6-0.3 31.9-0.8 10-0.6 11.5-0.9 12.4-2.7 0.5-1.1 0.6-3.2 0.3-4.7-0.5-2.2-1.4-3-4.3-3.8-2.1-0.5-6.2-1-9-1-2.9 0-6.8-0.6-8.5-1.4-1.8-0.7-4.2-2.3-5.3-3.6-1.5-1.6-2.1-4-2.4-8.9-0.2-3.7 0.1-7.6 0.8-8.8 0.6-1.3 2.3-3.1 3.9-4 1.7-1.1 6-2 12.2-2.5 7.1-0.5 10-1.2 11.3-2.5 1-1 1.8-2.9 1.8-4.3 0-1.4-0.8-3.2-1.7-4-1.4-1.2-5-1.5-17.3-1.6-8.6-0.1-17.6 0-20.1 0.2-4.1 0.4-4.6 0.7-5.3 3.7zm471.3-33.7c113 0.2 216.1 0.5 229 0.9 12.9 0.3 25.9 0.8 28.7 1 4.2 0.4 5.9 1.1 8.3 3.5 1.7 1.7 3.3 4.5 3.6 6.3 0.3 1.7 0.3 4.6 0 6.2-0.3 1.7-2 4.4-3.8 6.2-1.8 1.8-4.9 3.5-6.8 3.9-1.9 0.3-108.6 0.7-237 0.9-168.7 0.2-234.5 0.6-237.3 1.4-2 0.6-4.2 2-4.7 3.1-0.6 1.2-0.6 2.7-0.1 3.8 0.5 0.9 1.5 2.3 2.2 2.9 0.9 0.8 5 1.3 11.9 1.3 5.8 0.1 16.8 0.8 24.5 1.6 12 1.3 14.9 2 20.4 4.7 4.1 2 8 5 10.8 8.2 2.4 2.8 5 7 5.9 9.5 0.8 2.5 1.4 8 1.4 12.3 0 4.2-0.6 9.8-1.2 12.4-0.9 3.1-2.9 6.4-5.8 9.6-2.5 2.7-7.4 6.5-11 8.4-6.5 3.4-6.6 3.4-25.5 4.4-10.5 0.6-28 0.8-39 0.4-16.7-0.5-20.3-0.9-21.9-2.3-1-0.9-2.5-3-3.3-4.7-1.1-2.1-1.4-4.7-1-8.5 0.4-4.4 1-6 3.3-8.1 2.4-2.1 4.5-2.7 12.4-3.7 5.2-0.6 19.7-1.1 32.3-1.1 16-0.1 23.5-0.5 25.5-1.4 2.3-1 2.7-1.8 2.7-5.2 0-3.7-0.3-4.1-3.5-5.2-1.9-0.7-8.1-1.2-13.7-1.2-5.7-0.1-14.7-0.6-20-1.2-5.4-0.5-12.5-1.8-15.8-2.7-3.5-1-8.3-3.4-11.5-5.7-3.6-2.7-6.5-6-8.5-9.6-2.8-5.1-3-6-3-16.9 0-10.9 0.2-11.8 3-16.9 1.6-2.9 4.4-6.5 6-7.9 1.6-1.4 5.9-3.9 9.5-5.5 4.7-2.1 9.5-3.3 17-4.2 8.1-0.9 58.1-1.1 216-0.9z"/>
		<path id="Path 1" class="s1" d="m869.4 85.9c-1.2 0.4-3.1 1.9-4.1 3.2-1.1 1.3-2.4 4.6-3 7.4-0.7 3.1-1 16.2-0.9 34.5 0.1 16.2 0.3 34.6 0.4 40.7l0.2 11.3c6.7 6.7 7.5 7 12.5 7 3 0 6.5-0.4 7.8-0.9 1.2-0.5 8.7-6.8 16.7-14.1 8-7.3 15.5-13.9 16.8-14.9 2.2-1.5 2.4-1.5 6.5 2.4 2.3 2.3 9 8.7 15 14.3 5.9 5.6 12.2 11.1 14 12.2 1.9 1.2 5 2 7.5 2 2.3 0 5.4-0.6 7-1.4 1.5-0.8 3.4-2.2 4.4-3.2 1.1-1.3 2-5.2 2.7-11.4 0.6-5.4 0.9-23.9 0.7-43-0.2-18.4-0.4-35.2-0.5-37.3-0.1-3.1-0.7-4.1-3.8-6.2-3.1-2-5-2.5-10.3-2.5-5.7 0-6.9 0.4-10 3l-3.5 2.9c-0.2 25.3-0.4 37-0.4 42.3l-0.1 9.8c-10.5-10.9-13.8-14.1-14.2-14-0.5 0-2.5-1.1-4.5-2.5-2.8-1.9-5.1-2.6-8.8-2.6-3.7 0-6 0.7-9 2.7-2.2 1.4-7.3 5.8-11.3 9.7l-7.2 7.2c-0.3-17.8-0.3-27.5-0.2-33 0.2-5.9-0.3-12.7-1.1-16.5-1.3-5.8-1.8-6.7-4.8-8.3-1.9-0.9-5.4-1.7-7.9-1.6-2.5 0-5.5 0.4-6.6 0.8z"/>
		<path id="Path 2" class="s0" d="m396.3 31.9c-1.3 0.5-3.6 2.7-5.3 4.8l-3 3.8c0 29.5 0.5 44.3 1.1 52 0.6 8.4 1.8 16.4 3 20 1 3.3 3.4 8.3 5.2 11 1.9 2.8 5.3 6.6 7.8 8.6 2.4 2 6.2 4.6 8.4 5.7 2.2 1.1 6.7 2.8 10 3.7 4.9 1.4 8.9 1.6 22 1.3 12.3-0.3 17.3-0.9 21.5-2.3 3-1.1 8.2-3.8 11.5-6 3.9-2.6 7.4-6.2 10-10 2.3-3.3 5.1-9.2 6.3-13 1.3-4.4 2.5-12 3.2-20.5 0.5-7.4 1-18.9 0.9-25.5 0-6.6-0.3-15.5-0.7-19.7-0.6-6.8-1.1-8.1-3.7-10.8-2.7-2.8-3.8-3.2-10-3.6-5.5-0.4-7.7-0.1-10.5 1.3-2.2 1.1-4.2 3.3-5.4 5.8-1.7 3.6-2 6.9-2.3 30.5-0.2 14.6-0.9 28.5-1.4 31-0.6 2.5-2.1 5.8-3.3 7.5-1.2 1.7-4.5 4.1-7.2 5.4-3.7 1.8-6.5 2.4-11.4 2.4-4.2 0-7.9-0.7-10.4-1.9-2.2-1.1-5.1-3.3-6.5-5-1.4-1.8-3.2-4.9-4-7-0.9-2.7-1.6-12.7-2.1-32.4-0.5-16.5-1.3-29.7-1.9-31.3-0.6-1.5-2.3-3.5-3.9-4.4-1.6-1-5.3-1.8-9.2-2-3.6-0.2-7.5 0.1-8.7 0.6z"/>
		<path id="Path 3" fill-rule="evenodd" class="s1" d="m649.3 84c2.6 0 5.9 0.6 7.5 1.4 1.5 0.8 5.2 4.1 8.3 7.3 3.1 3.2 10.7 12.1 17 19.8 6.3 7.7 13.7 16.9 21.4 26.8l0.7-23.9c0.6-21.4 0.8-24.2 2.6-26.4 1-1.4 3-3.1 4.3-3.7 1.3-0.7 4.2-1.3 6.4-1.3 2.2 0 5.5 0.8 7.4 1.8 1.9 0.9 4.3 2.8 5.4 4.2 1.8 2.3 1.9 4.9 2.3 38.5 0.2 20.5-0.1 39.4-0.7 44-0.5 4.4-1.2 9.1-1.4 10.5-0.3 1.6-1.7 3.1-4 4.2-2 1.1-5.8 1.8-9 1.8-3 0-6.6-0.4-8-1-1.4-0.6-10.7-10.8-20.7-22.7-10.1-12-20-23.6-25.7-29.8l-0.3 11c-0.1 6.1 0 14.4 0.1 18.5 0.2 4.1-0.2 10.2-0.8 13.5-0.8 4.2-1.8 6.7-3.6 8.2-2 1.9-3.7 2.3-8.7 2.3-4.5 0-7.2-0.6-9.5-2-1.8-1.1-3.8-3-4.5-4.3-0.9-1.6-1.3-12.5-1.5-39.7-0.1-21.8 0.2-40.8 0.8-45.5 0.6-4.4 1.4-8.6 1.9-9.4 0.5-0.8 2.4-2 4.2-2.7 1.8-0.7 5.4-1.3 8.1-1.4zm147.2 1c9 0 12.3 0.4 18 2.3 3.9 1.3 9.6 4 12.8 6 3.1 2.1 7.6 5.6 10 8 2.4 2.3 5.6 6.5 7.2 9.2 1.6 2.8 3.9 7.9 5.2 11.5 1.6 4.6 2.3 8.8 2.3 14.5 0 4.6-0.7 10.8-1.8 14.5-0.9 3.6-3.3 9.1-5.2 12.4-1.9 3.2-6.3 8.5-9.7 11.7-3.5 3.2-8.2 6.9-10.5 8-2.4 1.2-6.8 3.1-9.8 4.1-3.6 1.3-9.4 2.2-16.5 2.5-10.2 0.5-11.6 0.3-19-2.2-4.4-1.5-9.8-3.7-12-4.8-2.2-1.1-7-5-10.7-8.6-4.4-4.4-7.6-8.7-9.7-13.1-1.6-3.6-3.7-9.2-4.6-12.5-0.8-3.3-1.5-8.3-1.5-11 0-2.7 0.9-8.6 2-13 1.2-4.4 3.2-10 4.5-12.5 1.4-2.5 4.8-6.9 7.5-9.8 2.8-2.8 7.6-6.9 10.8-8.9 3.1-2 8.9-4.7 12.7-5.9 5.5-1.8 9.4-2.3 18-2.4zm-14.9 31.9c-2.2 1.4-5.4 4.6-7 6.9-2 2.8-3.3 6.1-3.6 9-0.3 2.6-0.2 6.8 0.2 9.5 0.5 2.6 1.8 6.2 3.1 8.1 1.2 1.9 4 4.8 6.2 6.5 2.2 1.6 6.7 3.6 10 4.4 5 1.3 6.9 1.3 11.5 0.3 3-0.7 6.9-1.9 8.5-2.8 1.7-0.8 4.4-3.3 6.2-5.4 1.7-2.2 3.9-5.6 4.7-7.6 0.9-2.1 1.6-6 1.6-8.8 0-3.1-0.9-7-2.3-10.2-1.5-3.3-3.8-6.4-6.3-8.3-2.1-1.6-6-3.7-8.6-4.7-2.7-1-6.9-1.8-9.5-1.7-2.7 0-6.1 0.5-7.8 1.1-1.6 0.6-4.8 2.3-6.9 3.7z"/>
	</g>
	<path id="Path 0" class="s0" d="m71 6.9c-3 0.9-9.3 3.9-13.9 6.6-5.6 3.3-10.5 7.2-14.4 11.5-3.6 4-7.6 9.9-10.3 15.5-2.5 5-4.8 10.6-5.1 12.5-0.5 2.6-2.9 5.9-9.8 13-5.1 5.2-9.5 10.3-9.8 11.3-0.4 0.9-0.2 2.9 0.4 4.4 0.6 1.6 1.6 3.1 2.2 3.5 0.7 0.4 7.8 0.8 16 0.8h14.7c-0.8 4.3-1.3 12.2-1.6 20.5-0.5 12.6-0.3 16.5 1.4 24.5 1 5.2 3.2 12.7 4.7 16.5 1.6 3.8 4.4 9.7 6.4 13 2 3.3 6.2 9.2 9.3 13 3.2 3.8 8.8 9.5 12.5 12.6 3.7 3 9.7 7.3 13.3 9.3 3.6 2.1 8.1 4.5 10 5.3 1.9 0.8 7.1 2.6 11.5 4 7.2 2.2 9.9 2.5 27 2.6 17 0.2 19.8-0.1 26.8-2.1 4.2-1.2 10.7-3.6 14.5-5.3 3.7-1.6 7.9-4.2 9.5-5.7 1.5-1.5 2.7-3.7 2.7-5 0-1.2-3.3-7-7.3-12.9-3.9-5.9-21-30.1-38-53.8-16.9-23.6-32.1-44.5-33.7-46.3-2-2.1-3.9-3.2-5.7-3.2-1.6 0-3.8 0.9-5 2.2-1.3 1.3-2.3 3.6-2.3 5.3 0 1.6 1.2 4.8 2.7 7 1.5 2.2 13.8 19.5 27.3 38.5 13.6 19 28.8 40.2 33.8 47.2 5.1 7.1 9.1 13 9 13.2-0.2 0.2-4.4 1.6-9.3 3.1-6 1.8-12.5 2.8-19.5 3.2-6.5 0.4-13.6 0.1-18.5-0.6-4.4-0.7-11.6-2.7-16-4.4-4.4-1.7-11.2-5.2-15-7.8-3.8-2.6-10.4-8.3-14.6-12.6-4.2-4.3-9.4-11-11.6-14.8-2.3-3.9-5.6-11.3-7.3-16.5-1.8-5.2-3.6-12.9-4-17-0.4-4.1-0.3-11.1 0.2-15.5 0.5-4.4 1.5-10.5 2.3-13.5 0.8-3 1.5-7.5 1.5-10 0-3.1-0.5-5.1-1.7-6.2-1.5-1.4-3.7-1.8-12-1.8h-10.3c5.1-7.4 7.6-12.7 8.9-16.5 1.3-3.9 3.5-9 4.9-11.5 1.4-2.5 5.3-7.1 8.7-10.4 3.3-3.2 8-6.9 10.5-8.1 2.5-1.2 7-3 10-4 4.3-1.4 7.8-1.7 16-1.4 9.4 0.4 11.3 0.8 17.5 3.8 3.9 1.8 8.5 4.9 10.3 6.9 1.9 2.1 7.1 8.2 11.6 13.7 4.5 5.5 16.7 21 27.2 34.5 10.4 13.5 30.7 39.6 44.9 58 14.2 18.4 32.7 42.3 41.1 53 8.4 10.7 16.6 21 18.3 22.7 2.2 2.3 4 3.3 6.1 3.3 1.7 0 3.9-0.9 5-2 1.2-1.2 2-3.3 2-5.3 0-2.2-1.3-4.9-4.3-8.8-2.3-3-6.2-8.2-8.7-11.5-2.4-3.2-7-9.1-10.1-12.9-3.1-3.9-15.7-20.1-27.9-36-12.3-16-26.6-34.4-31.7-41-5-6.6-15.1-19.7-22.4-29-7.2-9.4-18.1-23.3-24.3-31-6.1-7.7-12.9-16-15.1-18.4-2.2-2.4-6.7-5.8-10-7.6-3.3-1.9-8.8-4.3-12.2-5.4-5.2-1.7-8.6-2.1-20.1-2-9.9 0.1-15.2 0.6-19.2 1.8z"/>
</svg>