<svg version="1.2" xmlns="http://www.w3.org/2000/svg" viewBox="0 0 512 512" width="512" height="512">
	<title>image</title>
	<style>
		.s0 { fill: #2985e1 } 
	</style>
	<path id="Path 0" fill-rule="evenodd" class="s0" d="m112 53c4.1 0 88.5 6.7 187.5 15 123.3 10.2 181.7 15.4 185.5 16.5 3 0.9 7.9 3.3 10.9 5.3 3 2 7.1 6.2 9.3 9.2 2.1 3 4.6 7.8 5.4 10.5 0.8 2.8 1.4 8.3 1.4 12.3 0 3.9-4 55.9-8.9 115.5-4.9 59.5-9.4 111.2-10 115-0.6 3.7-2.2 8.9-3.6 11.7-1.4 2.8-4.2 6.9-6.3 9.1-2 2.3-5.5 5.2-7.7 6.5-2.2 1.3-6 3-8.5 3.9q-4.5 1.6-14.5 1.6c-5.5 0-10.8-0.3-11.8-0.6-1.6-0.5-1.7 1.1-2 22.8-0.2 23.1-0.2 23.2-3 29.2-1.5 3.3-4.9 8.2-7.5 10.8-2.6 2.7-7.4 6.3-16.7 11.2h-384l-6-2.9c-3.3-1.7-8-5-10.6-7.5-2.5-2.6-5.8-7.3-10.4-16.6v-248l2.7-5.5c1.5-3 4.8-7.7 7.5-10.4 2.8-2.9 7.5-6.2 11.3-8 6.5-3.1 6.5-3.1 25.8-3.3 10.5-0.2 19.2-0.6 19.2-1 0-0.5 1.8-17 3.9-36.8 2.8-26.1 4.5-37.5 5.9-41.5 1.2-3.2 4.1-7.8 6.9-10.9 2.6-2.9 6.4-6.3 8.3-7.4 1.9-1.2 5.5-2.9 8-3.9 2.8-1 7.4-1.7 12-1.8zm-12.5 26.6c-1.1 1.6-2.6 4.5-3.2 6.4-0.7 1.9-2.6 16.8-4.3 33-1.6 16.2-3.2 31.2-3.5 33.3l-0.5 3.7 322.5 0.5c8.9 4.3 13.8 7.6 16.6 10.3 3.1 2.8 6.3 7.2 8.2 11.2l3.2 6.5 0.5 178.5c4.3 0.8 8.6 1.1 12.5 1.2 5.1 0.1 8-0.4 10.9-1.8 2.2-1 5-3.1 6.3-4.6 1.2-1.6 2.7-4.5 3.2-6.5 0.5-2.1 5-53.3 10-113.8 5-60.5 9.1-112.4 9.1-115.3 0-2.8-0.6-6.4-1.4-8-0.8-1.5-2.7-3.9-4.3-5.3-1.5-1.5-3.8-3.2-5.1-3.8-1.2-0.6-83.1-7.8-182-16.1-98.8-8.2-182-15-184.7-15-2.8 0.1-6.5 0.7-8.4 1.4-1.9 0.7-4.4 2.6-5.6 4.2zm-72.8 102.2c-1.6 1.5-3.6 4-4.4 5.7-1.1 2-1.8 7.1-2.2 15.3l-0.6 12.2h398.5c-0.5-26.7-0.5-26.9-3.5-30.5-1.6-2.1-4.6-4.6-6.5-5.6-3.4-1.8-9.3-1.9-188.5-1.8-120.1 0-185.9 0.4-187.5 1-1.4 0.6-3.8 2.2-5.3 3.7zm-6.7 94.2h398v-40h-398zm0.5 148.5c4.1 7.1 7 10 9.1 11.2l3.9 2.2c343.7 0.1 371.9-0.1 374.3-1.3 1.5-0.8 3.9-2.7 5.4-4.3 1.5-1.5 3.2-4 3.7-5.6 0.7-1.8 1.1-23.7 1.1-66.2v-63.5h-398.1zm256.5-98.5h51c43.4 0 51.5 0.2 54 1.5 1.7 0.8 3.5 2.4 4 3.5 0.6 1.2 1 15.8 1 37.2 0 28.1-0.2 35.7-1.3 37.3-0.8 1.1-2.7 2.6-4.3 3.3-2.2 1-14.3 1.2-105.3 0.7l-5.6-5.5v-72.2zm14 63h75v-42h-75z"/>
</svg>