<svg version="1.2" xmlns="http://www.w3.org/2000/svg" viewBox="0 0 512 512" width="512" height="512">
	<title>image</title>
	<style>
		.s0 { fill: #ffffff } 
	</style>
	<path id="Path 0" fill-rule="evenodd" class="s0" d="m79.8 48c16.2 0 21.9 0.3 24 1.4 1.5 0.8 3.6 2.4 4.7 3.6 1.1 1.2 22.9 58.1 95.1 250.5l99.2 0.3c54.6 0.1 99.2 0 99.2-0.3 0-0.3 5.9-35.6 13-78.5 7.1-42.9 13-78.7 13-79.5 0-1.3-14.1-1.5-120.8-1.5-118.9 0-120.7 0-124-2-1.7-1.1-4.1-3.5-5.2-5.3-1.4-2.2-2-5-2-8.7 0-3.7 0.6-6.5 2-8.8 1.1-1.7 3.5-4.1 5.3-5.2 3.2-2 5-2 136.7-2 131.7 0 133.5 0 136.8 2 1.7 1.1 4.1 3.5 5.2 5.3q2 3.2 2 8.4c0 2.9-7.2 48.6-16 101.5-10.8 64.4-16.7 97.3-17.8 99.2-0.9 1.6-3 3.8-7.3 7.1l-133.2 0.5c-132.2 0.5-133.2 0.5-136.7 2.6-1.9 1.1-4.5 3.6-5.8 5.5q-2.3 3.4-2.3 7.9 0 4.5 2.3 7.9c1.3 1.9 3.9 4.4 5.8 5.5 3.4 2.1 5.1 2.1 72.5 2.6 63.6 0.5 69.3 0.6 71.8 2.2 1.5 1 3.6 3.3 4.7 5 1.4 2.3 2 5.1 2 8.8 0 3.7-0.6 6.5-2 8.7-1.1 1.8-3.5 4.2-5.3 5.3-3 1.9-5 2-58.7 2l0.7 3.2c0.5 1.8 0.8 8.5 0.8 14.8 0 11.3-0.1 11.6-3.9 19.5-2.6 5.5-5.6 9.7-9.5 13.5-3.1 3-7.9 6.7-10.6 8.2-2.8 1.5-7.7 3.4-11 4.2-3.3 0.9-8.9 1.6-12.5 1.6-3.6 0-9.1-0.7-12.3-1.5-3.1-0.8-8.1-2.7-11-4.1-2.8-1.5-7.9-5.4-11.3-8.8-3.3-3.4-7.2-8.6-8.7-11.6-1.5-3-3.4-8.9-4.3-13-1-5.1-1.3-9.4-0.8-13.5 0.3-3.3 1.3-7.9 2-10.3 1.1-3.3 1.1-4.2 0.1-4.2-0.6 0-4-1.4-7.5-3-3.4-1.7-8.5-5.1-11.3-7.8-2.8-2.6-6.4-6.7-7.9-9.2-1.6-2.5-3.8-7-4.8-10-1.1-3-2.2-8-2.6-11-0.4-3-0.2-8.6 0.4-12.5 0.6-4.1 2.5-9.9 4.4-14 1.9-3.9 5.6-9.2 8.3-11.9 2.6-2.7 6.8-6.2 9.3-7.8 2.5-1.6 7.4-3.8 11-4.9 4.3-1.3 9.3-1.9 14.7-1.9 7.4 0 8.2-0.2 7.8-1.8-0.3-0.9-19.1-51.2-83.1-221.7l-13.5-0.5c-10.5-0.4-14.1-0.9-16.2-2.3-1.5-0.9-3.6-3.2-4.7-5-1.4-2.2-2-5-2-8.7 0-3.7 0.6-6.5 2-8.8 1.1-1.7 3.5-4.1 5.2-5.2 3-1.8 5.1-2 24.5-2zm99.3 360.2c-1.2 2-2 5.1-2 7.8 0 2.7 0.8 5.8 2 7.7 1.1 1.8 3.5 4.2 5.2 5.3 2 1.2 5.1 2 7.8 2 2.7 0 5.8-0.8 7.7-2 1.8-1.1 4.2-3.5 5.3-5.3 1.2-1.9 2-5 2-7.7 0-2.7-0.8-5.8-2-7.8-1.1-1.7-3.5-4.1-5.3-5.2-1.9-1.2-5-2-7.7-2-2.7 0-5.8 0.8-7.8 2-1.7 1.1-4.1 3.5-5.2 5.2zm204.7-40.1c6.2-0.1 11.2 0.5 15 1.7 3.2 1 8 3.2 10.8 4.9 2.7 1.7 7.1 5.3 9.6 8 2.5 2.6 5.7 6.8 7.1 9.3 1.5 2.5 3.3 7 4.2 10 0.9 3.2 1.6 9.2 1.6 14.2 0 6.2-0.6 10.6-2.1 15-1.1 3.5-3.3 8.3-4.9 10.8-1.6 2.5-5 6.6-7.7 9.1-2.6 2.5-6.8 5.7-9.3 7.1-2.5 1.5-7 3.3-10 4.2-3.2 0.9-9.2 1.6-14.3 1.6-5.5 0-10.8-0.7-14.5-1.8-3.1-1-8-3.2-10.7-4.9-2.8-1.7-7.1-5.3-9.6-8-2.5-2.6-5.7-6.8-7.1-9.3-1.5-2.5-3.3-7-4.2-10-0.9-3.1-1.6-9.2-1.6-14 0-4.8 0.7-10.9 1.6-14 0.9-3 2.7-7.5 4.2-10 1.4-2.5 4.6-6.7 7.1-9.3 2.5-2.7 6.8-6.3 9.6-8 2.7-1.7 7.5-3.9 10.5-4.9 3.5-1.1 8.9-1.7 14.7-1.7zm-12.7 40.1c-1.2 2-2 5.1-2 7.8 0 2.7 0.8 5.8 2 7.7 1.1 1.8 3.5 4.2 5.2 5.3 2 1.2 5.1 2 7.8 2 2.7 0 5.8-0.8 7.7-2 1.8-1.1 4.2-3.5 5.3-5.3 1.2-1.9 2-5 2-7.7 0-2.7-0.8-5.8-2-7.8-1.1-1.7-3.5-4.1-5.3-5.2-1.9-1.2-5-2-7.7-2-2.7 0-5.8 0.8-7.8 2-1.7 1.1-4.1 3.5-5.2 5.2z"/>
</svg>