<svg version="1.2" xmlns="http://www.w3.org/2000/svg" viewBox="0 0 512 512" width="512" height="512">
	<title>Nuovo progetto</title>
	<style>
		.s0 { fill: #2985e1 } 
		.s1 { fill: #ffffff } 
	</style>
	<path id="Forma 1" fill-rule="evenodd" class="s0" d="m256 512c-141.6 0-256-114.4-256-256 0-141.6 114.4-256 256-256 141.6 0 256 114.4 256 256 0 141.6-114.4 256-256 256z"/>
	<path id="Path 0" fill-rule="evenodd" class="s1" d="m255.8 63.1c76.3-0.1 78.3-0.1 83.4 1.9 2.9 1.1 7.5 3.7 10.3 5.8 2.7 2.1 6.7 6.2 8.7 9.2 2 3 4.6 8.4 5.8 12 2 6.3 2 8.5 2 92 0 81.7-0.1 85.7-1.9 91-1 3-2.6 6.9-3.4 8.5-0.9 1.6-3.1 4.8-5 7-1.8 2.2-5.8 5.6-8.8 7.6-3 1.9-7.9 4.3-10.9 5.2-4.7 1.4-10.3 1.7-68 1.7v121h45.5l3.2 2.7c3 2.6 3.2 3.3 3.3 8.8 0 5.3-0.3 6.3-5.5 11.5h-117l-2.8-2.8c-2.4-2.4-2.7-3.4-2.7-8.7 0.1-5.5 0.3-6.2 6.5-11.5h45.5v-121h-31.3c-26.4 0-32-0.3-36.7-1.7-3-0.9-7.9-3.3-10.9-5.2-3-2-7-5.4-8.8-7.6-1.9-2.2-4.1-5.4-5-7-0.8-1.6-2.4-5.5-3.4-8.5-1.8-5.3-1.9-9.3-1.9-91 0-83.5 0-85.7 2-92 1.2-3.6 3.8-9 5.8-12 2-3 5.9-7.1 8.7-9.2 2.7-2.1 7.2-4.6 10-5.7 4.8-1.9 7.9-2 83.2-2zm-76.6 26c-1.3 0.8-3.1 2.1-4 2.9-0.9 0.9-2.4 3.2-3.4 5.3-1.6 3.4-1.7 9.7-1.7 86.5 0 76.9 0.1 82.9 1.7 86.2 1 1.9 2.7 4.5 3.8 5.6 1.1 1.2 3.6 2.8 5.5 3.8 3.2 1.5 10.1 1.6 75.5 1.6l72-0.1c5.4-3.3 7.7-5 8.5-5.8 0.8-0.8 2.3-3.1 3.3-5.1 1.6-3.3 1.7-9.3 1.7-86.3 0-76.7-0.1-83-1.8-86.4-0.9-2.1-2.4-4.4-3.3-5.3-0.8-0.8-3.1-2.4-5-3.5-3.3-1.9-5.4-2-73.4-2.2-38.5 0-71.6 0.2-73.5 0.6-1.9 0.4-4.6 1.4-5.9 2.2zm124.5 19.4l4.2 2.7c2.3 1.6 5.1 3.8 6.2 5 1.1 1.3 2.9 4.1 4 6.3 2 3.9 2 5.7 2 108.5l-3.5 3c-2.6 2.2-4.5 3-11.5 3v8.2c0 7.7-0.2 8.5-2.8 11.1-2.3 2.4-3.5 2.7-8.5 2.7-5.1 0-6-0.3-8.7-3.3-2.8-3-3-3.7-3-18.7h-52v7c0 3.8-0.5 8-1.1 9.2-0.7 1.3-2 3.1-3 4-1.4 1.3-3.6 1.8-7.7 1.8-4.9 0-6.1-0.3-8.4-2.7-2.6-2.6-2.8-3.4-2.8-19.3h-4c-3 0-4.9-0.7-11-6v-52.3c0-50.2 0.1-52.4 2-56.2 1.1-2.2 2.5-4.7 3.2-5.5 0.7-0.9 3.1-2.9 5.3-4.5 2.2-1.6 5.3-3.3 7-3.7 1.6-0.3 23.5-0.6 94.1-0.3zm-88 25.8c-0.3 1.2-0.6 9.3-0.6 17.9v15.8h82c-0.4-27-0.9-35.2-1.3-35.7-0.5-0.4-17.8-0.9-38.5-1-20.7 0-38.4 0.1-39.3 0.4-0.9 0.2-1.9 1.4-2.3 2.6zm-0.6 78.7h82v-22h-82z"/>
</svg>