<svg version="1.2" xmlns="http://www.w3.org/2000/svg" viewBox="0 0 512 512" width="512" height="512">
	<title>image</title>
	<style>
		.s0 { fill: #fe4b25 } 
	</style>
	<path id="Path 0" class="s0" d="m189.5 31.9c-2.2 0.3-5.3 1.4-6.8 2.4-1.5 0.9-3.6 3.2-4.8 5-1.6 2.6-1.9 4.4-1.6 9.2 0.3 4.9 1.3 7.5 5.1 14 2.5 4.4 6.4 12.5 8.5 18 2.2 5.5 4.9 13.6 6 18 1.1 4.4 2.5 12 3.2 17 0.6 5 0.9 13.6 0.6 19.5-0.3 5.8-1.2 13.8-2.1 17.8-0.9 3.9-3.1 11.2-4.8 16-1.8 4.8-5.5 12.5-8.3 17.1-2.7 4.5-6.2 9.8-7.7 11.7l-2.8 3.4c-8-6.6-13.1-11.7-16.4-15.6-3.4-3.9-7.3-9.3-8.8-12-1.5-2.7-3.3-8.3-4-12.4-0.8-4.1-2.1-8.7-3.1-10.3-0.9-1.5-3.2-3.6-5-4.7q-3.2-2-8.4-2c-2.9 0-6.5 0.6-8 1.4-1.6 0.8-3.6 2.2-4.5 3.2-0.9 1.1-3.8 6.6-6.3 12.4-2.5 5.8-6.8 16.8-9.4 24.5-2.7 7.7-6.3 19.2-7.9 25.5-1.7 6.3-4.2 17.1-5.6 24-1.4 6.9-3.2 17.9-4.1 24.5-1 6.7-1.9 22.6-2.2 36-0.4 16.1-0.2 27.8 0.7 35.5 0.7 6.3 2.3 16.7 3.6 23 1.3 6.3 4.3 16.9 6.5 23.5 2.3 6.6 6.1 15.9 8.5 20.8 2.4 4.8 6.3 11.7 8.5 15.5 2.3 3.7 7 10.3 10.4 14.7 3.5 4.4 10.3 11.9 15.2 16.7 4.8 4.7 13.1 11.8 18.3 15.7 5.2 3.9 15.2 10.1 22.3 13.6 10.3 5.3 13.6 6.5 17.4 6.5 2.7 0 6.4-0.8 8.3-1.8 1.9-0.9 4.5-3.3 5.8-5.2 1.6-2.5 2.3-5 2.3-8.5 0-3.9-1.1-7.3-5-15.5-2.8-5.8-6.3-14.6-8-19.5-1.6-4.9-3.7-12.8-4.6-17.5-0.9-4.7-1.9-14.6-2.2-22-0.3-7.4-0.3-15.3 0.1-17.5l0.7-4c9.7 15 16.1 22.8 21.3 28.1 5 5 12.3 11.3 16.1 14 6 4.1 7.8 4.9 12.5 5.2 4 0.2 6.5-0.2 9-1.6 2-1.1 5.3-4.6 7.8-8.3 2.4-3.5 6.7-11.3 9.7-17.4 3-6.1 7-15.7 8.9-21.5 1.9-5.8 4.5-15.2 5.7-21 1.4-6.9 2.4-16.3 2.8-27.5l0.7-17c6.4 13.2 9.2 19.9 10.3 23.5 1.2 3.6 2.8 9.6 3.6 13.5 0.7 3.9 1.9 11.9 2.6 18 0.7 6.7 0.9 16.9 0.6 26-0.4 8.3-1.3 19.7-2.1 25.5-0.9 5.8-2.3 14.3-3.1 19-0.9 4.7-2.9 13.8-4.6 20.3-1.6 6.4-2.9 13.8-2.9 16.4 0 3.4 0.6 5.8 2.2 8.2 1.3 1.9 3.7 4.3 5.3 5.3 1.7 1 5.3 1.9 8.5 2 4.5 0.2 7.4-0.5 16-4 5.8-2.4 15-6.8 20.5-10 5.5-3.1 14.3-8.8 19.5-12.8 5.2-3.9 13.1-10.7 17.5-15 4.5-4.3 10.5-10.8 13.5-14.4 2.9-3.6 8-10.6 11.3-15.5 3.2-4.9 7.9-13.1 10.4-18 2.5-4.9 6.1-12.8 7.9-17.5 1.8-4.7 4.4-13 5.9-18.5 1.4-5.5 3.3-14.5 4.1-20 1.1-7 1.6-16.7 1.5-32.5-0.1-12.4-0.6-27.4-1.1-33.5-0.6-6.1-1.9-16.6-3-23.5-1.1-6.9-3.4-17.7-5.1-24-1.7-6.3-4.6-15.6-6.6-20.5-1.9-4.9-5.4-12.8-7.9-17.5-2.4-4.7-6.4-11.1-8.9-14.2-2.5-3.2-5.9-6.5-7.5-7.3-1.6-0.8-5.1-1.6-7.8-1.7-3-0.1-5.9 0.6-8.1 1.8-2.2 1.2-5.7 5.3-9.8 11.4-3.5 5.2-8.1 11.2-10.1 13.3l-3.7 3.7c-1.2-12.8-2.2-20.6-3.1-25.5-0.9-4.9-2.7-12.8-4-17.5-1.4-4.7-4-12.6-5.9-17.5-1.9-5-5.5-13-8.1-18-2.5-5-7.6-13.5-11.2-19-3.7-5.5-9.8-13.3-13.7-17.4-3.8-4-10.8-10.2-15.5-13.7-4.7-3.5-12.6-8.6-17.5-11.3-4.9-2.8-12.6-6.4-17-8.2-4.4-1.7-12.9-4.4-19-5.9-6.1-1.6-15.9-3.3-22-3.9-6.1-0.6-13.5-1-16.5-1-3 0.1-7.3 0.4-9.5 0.8z"/>
</svg>