<svg version="1.2" xmlns="http://www.w3.org/2000/svg" viewBox="0 0 512 512" width="512" height="512">
	<title>image</title>
	<style>
		.s0 { fill: #ff0000 } 
	</style>
	<path id="Path 0" class="s0" d="m94 1.4c-3 0.7-8.2 2.4-11.5 3.8-3.3 1.4-8.7 4.2-12 6.1-3.5 2.1-9.9 7.6-15.5 13.4-6.1 6.3-10.7 12.1-12.9 16.3-1.9 3.6-4.6 9.6-6 13.5l-2.6 7-0.6 385c4.1 13.2 6.6 19.5 8.1 22.5 1.5 3 4.4 7.8 6.5 10.5 2 2.7 5.1 6.4 6.8 8 1.7 1.6 5.4 4.9 8.2 7.3 2.7 2.4 7.7 5.9 11 7.7 3.3 1.9 9.4 4.7 13.5 6.2l7.5 2.8 252.5 0.5c8.1-5.1 11.4-7.9 12.6-9.6 1.2-1.6 2.6-4.5 3.3-6.4 0.6-1.9 1.1-5.6 1.1-8.3 0-2.6-0.7-6.6-1.6-8.9-1-2.4-2.9-5.6-4.3-7.2-1.4-1.5-4.2-3.8-6.1-5.1l-3.5-2.2c-221.3-1.4-239.7-1.7-244-3-2.7-0.8-6.9-2.9-9.1-4.6-2.3-1.8-5.5-5-7.1-7.2-1.7-2.2-3.7-5.8-4.4-8-1.1-3.3-1.3-36-1.4-185 0-148.7 0.2-181.8 1.3-185.5 0.8-2.5 2.8-6.4 4.5-8.6 1.8-2.3 5-5.5 7.2-7.2 2.2-1.6 6.5-3.7 9.5-4.7 4.9-1.4 17.6-1.7 124-2.2l118.5-0.5c9.7-6.4 11.7-8.6 13.8-12.8 1.9-3.8 2.7-7 2.7-10.5 0-2.7-0.7-7-1.5-9.5-0.9-2.5-3-6-4.8-7.8-1.8-1.9-4.9-4.2-7-5.3-3.6-1.8-7.5-1.9-127.5-1.8-93.5 0.1-125 0.4-129.2 1.3zm239.5 116.5c-1.6 0.4-4.4 1.6-6 2.8-1.6 1.2-4.2 3.4-5.7 5-1.5 1.5-3.4 4.8-4.3 7.3-0.8 2.5-1.5 6.8-1.5 9.5 0 2.8 0.9 6.8 1.9 9 1.2 2.6 14.7 17.1 39.5 42.3l37.6 38.2c-149.2 0.1-193.6 0.4-195 0.6-1.4 0.3-4.2 1.6-6.3 2.9-2 1.4-4.9 4.4-6.5 6.7-2.5 3.8-2.7 5-2.7 13.8 0 8.8 0.2 10 2.7 13.8 1.6 2.3 4.7 5.4 7 7l4.2 2.7 196.3 1c-61.6 62.5-75.6 77.4-76.8 80-1.1 2.3-1.9 6.3-1.9 9.3 0 3.1 0.8 7.1 2.1 10 1.1 2.6 3.2 6 4.7 7.5 1.5 1.6 4.3 3.7 6.2 4.7 1.9 0.9 5.1 2 7 2.3 1.9 0.4 6 0.3 9.1-0.1 5.1-0.6 6.3-1.3 13.5-7.6 4.3-3.9 32.4-31.5 62.4-61.5 34.9-34.9 55.2-56 56.3-58.3 1.1-2.5 1.7-6.3 1.7-11 0-5.5-0.5-8.1-2-10.5-1.1-1.8-13.2-14.9-26.9-29-13.6-14.2-39.9-40.5-58.2-58.4-18.4-18-35-34-36.9-35.6-1.9-1.6-5.1-3.5-7-4.2-1.9-0.6-5.3-1.1-7.5-1-2.2 0.1-5.4 0.4-7 0.8z"/>
</svg>