<svg version="1.2" xmlns="http://www.w3.org/2000/svg" viewBox="0 0 512 512" width="512" height="512">
	<title>image</title>
	<style>
		.s0 { fill: #2985e1 } 
	</style>
	<path id="Path 0" fill-rule="evenodd" class="s0" d="m251.5 0.1c8.6-0.1 17.4 0.5 22.8 1.4 4.8 0.8 12.4 2.7 16.9 4.1 4.6 1.4 12.4 4.7 17.3 7.2 4.9 2.6 12.6 7.4 17 10.6 4.4 3.3 11.1 9.2 14.9 13 3.9 3.9 9.5 10.5 12.5 14.6 3.1 4.1 7.5 11.1 9.7 15.5 2.3 4.4 5.3 11.4 6.7 15.5 1.4 4.1 3.3 10.9 4.2 15 0.9 4.1 1.9 13.6 2.2 21 0.3 8.5 0.1 16.8-0.7 22.5-0.7 4.9-2.3 12.8-3.7 17.5-1.3 4.7-4 12.1-6 16.5-1.9 4.4-6 11.8-9.1 16.5-3.3 5-10.1 13-16.6 19.6-6.6 6.6-14.5 13.3-19.6 16.6-4.7 3.1-11.6 7-15.5 8.7-3.9 1.8-10.5 4.3-14.7 5.6-4.3 1.4-12 3.2-17 4-5.1 0.8-14.1 1.5-20 1.5-6 0-14.1-0.5-18-1.1-4-0.6-10-1.7-13.3-2.6-3.3-0.8-9.4-2.6-13.5-4.1-4.1-1.5-11.3-4.9-16-7.6-4.7-2.7-11.2-6.9-14.5-9.5-3.3-2.5-9.1-7.8-12.9-11.6-3.9-3.8-9.5-10.4-12.6-14.5-3-4.1-7.6-11.6-10.2-16.5-2.5-4.9-5.8-12.8-7.2-17.5-1.5-4.7-3.4-12.6-4.3-17.5-1.1-6.6-1.4-13.3-1-25 0.3-11.4 1-18.6 2.5-25 1.2-5 3.2-11.7 4.5-15 1.4-3.3 3.2-7.7 4.1-9.8 0.9-2 3-6.1 4.8-9 1.7-2.8 5.2-7.9 7.7-11.2 2.5-3.3 7-8.6 10.1-11.9 3-3.2 9.1-8.6 13.5-12.1 4.4-3.4 10.7-7.8 14-9.8 3.3-1.9 10.5-5.4 16-7.5 5.5-2.2 13.6-4.7 18-5.6 4.4-0.8 9.1-1.7 10.5-1.9 1.4-0.2 8.8-0.5 16.5-0.6zm-31 35.9c-3.3 1.1-9.4 4-13.5 6.4-4.1 2.4-10.6 7.1-14.4 10.3-3.8 3.2-9.7 9.2-13 13.5-3.4 4.2-7.8 10.7-9.8 14.5-2 3.7-4.9 10.8-6.4 15.8-2.6 8.3-2.8 10.3-2.8 26.5-0.1 15.2 0.2 18.5 2.2 25.2 1.2 4.3 3.8 11.1 5.8 15 2 4 5.5 10 7.9 13.3 2.3 3.3 8.3 9.8 13.2 14.5 5.6 5.4 12 10.3 17.4 13.3 4.6 2.6 12 5.9 16.4 7.3 4.4 1.4 10.9 2.9 14.5 3.4 3.6 0.5 10.1 1 14.5 1 4.4 0 11.9-0.7 16.8-1.5 4.8-0.8 12.4-2.9 17-4.7 4.5-1.7 12-5.7 16.7-8.9 4.7-3.1 11.7-9 15.6-13.1 3.9-4 8.9-10 11.1-13.3 2.2-3.3 5.2-8.4 6.7-11.3 1.4-2.8 3.8-9.1 5.3-14 2.4-7.9 2.6-10.2 2.7-25.7 0-15.7-0.2-17.7-2.7-25.8-1.5-4.8-4.2-11.7-6.1-15.5-1.9-3.7-5-9-7-11.7-2-2.8-6.6-8.1-10.4-11.9-3.7-3.7-9.4-8.8-12.7-11.1-3.3-2.4-9.3-6-13.2-7.9-4-2-10.6-4.6-14.5-5.7-5.7-1.7-10.8-2.2-22.8-2.5-11.2-0.3-17.3 0.1-22 1.1-3.6 0.8-9.2 2.4-12.5 3.5zm-68.8 211.1c7.6-0.1 8.8 0.2 14.6 3.2 3.4 1.8 11.6 6.8 18.2 11.1 6.6 4.3 14.9 9.3 18.5 11.1 3.6 1.7 9.7 4.4 13.5 5.8 3.8 1.5 10.8 3.7 15.5 4.9 6.9 1.8 11.3 2.2 23.5 2.2 12.6 0 16.5-0.4 24-2.3 4.9-1.3 13.7-4.3 19.5-6.5 7.2-2.9 15.9-7.7 27.5-15.1 9.4-6 19-11.7 21.5-12.8 3.9-1.7 5.9-1.9 15.5-1.4 6.1 0.4 14.4 1.5 18.5 2.6 4.1 1 10.2 3 13.5 4.4 3.3 1.4 8.5 3.9 11.5 5.7 3 1.8 8.4 5.6 12 8.5 3.6 2.9 8.8 8.2 11.6 11.7 2.8 3.4 6.4 8.3 8.1 10.8 1.7 2.5 5.2 8.8 7.8 14 2.6 5.2 6.1 12.9 7.6 17 1.6 4.1 4.5 13.8 6.4 21.5 1.9 7.7 4.4 20.1 5.5 27.5 1.1 7.4 2.5 22.3 3 33 0.7 12.9 0.7 23.1 0 30-0.5 5.8-1.9 13.9-3 18-1.2 4.1-3.9 11.1-6.1 15.5-2.2 4.4-6.3 10.7-9.2 14-2.8 3.3-7 7.7-9.2 9.6-2.2 2-6.7 5.3-10 7.4-3.3 2.1-8 4.7-10.5 5.8-2.5 1.1-8.3 3.1-21.5 7.2l-140 0.3c-125.4 0.2-140.9 0.1-148.5-1.4-4.7-0.9-11.7-2.7-15.5-4.1-3.8-1.4-10.2-4.4-14-6.6-4.4-2.5-10.4-7.4-16-13.1-6.9-6.9-10.1-11-13.2-17.1-2.2-4.4-5-10.9-6.1-14.5-1.2-3.6-2.6-9.2-3.2-12.5-0.5-3.3-1-14.8-1-25.5 0-10.7 0.7-25.4 1.5-32.5 0.8-7.1 2.1-17.1 3-22 0.9-4.9 2.9-14.2 4.5-20.5 1.6-6.3 4.5-15.8 6.5-21 2-5.2 5.7-13.5 8.3-18.5 2.6-4.9 6.8-11.9 9.5-15.5 2.6-3.6 7.3-9.2 10.5-12.4 3.1-3.2 8.2-7.7 11.2-9.9 3-2.2 8.9-5.7 13-7.8 4.1-2 9.8-4.3 12.5-5.2 2.8-0.9 7.5-2 10.5-2.6 3-0.6 6.6-1.3 8-1.5 1.4-0.2 6.2-0.4 10.8-0.5zm-23.8 35.9c-3 1.2-7.7 3.7-10.5 5.4-2.7 1.8-7.4 5.9-10.4 9.2-3 3.2-6.9 8.3-8.7 11.2-1.9 2.8-5 8.5-7 12.5-2 3.9-5.4 12.4-7.4 18.7-2.1 6.3-5 18-6.4 26-1.4 8-3 18.8-3.6 24-0.5 5.2-1 17.6-1 27.5 0 13.2 0.5 19.6 1.6 24 0.9 3.3 2.8 8.5 4.2 11.5 1.5 3.1 5.5 8.4 9.2 12.1 4.3 4.4 8.7 7.6 13 9.7 3.6 1.7 9.7 3.9 13.5 4.9 6.6 1.7 15.1 1.8 140.5 1.8 123.2 0 134.1-0.1 141-1.7 4.1-1 10.4-3.2 14-5 3.6-1.8 8.7-5.4 11.5-7.9 2.7-2.5 6.4-6.8 8.2-9.5 1.8-2.7 4.2-7.6 5.4-10.9 1.1-3.3 2.4-9.4 2.9-13.5 0.5-4.1 0.5-16.3 0-27-0.6-12.4-1.9-24.9-3.5-34.5-1.4-8.2-3.6-19.1-5-24-1.3-4.9-3.8-12.4-5.3-16.5-1.6-4.1-4.4-10.2-6.3-13.5-1.8-3.3-4.9-8.5-7-11.5-2-3-6.1-7.8-9.1-10.7-2.9-2.8-7.5-6.5-10.3-8.2-2.7-1.8-8.4-4.2-12.5-5.5-4.1-1.4-10.2-2.8-13.5-3.2l-6-0.7c-23.2 14.7-33.6 20.8-38 23.1-4.4 2.2-12.7 5.6-18.5 7.6-5.8 2-15 4.6-20.5 5.7-5.5 1.2-15.4 2.3-22 2.6-8.6 0.4-15.3 0.1-23.5-1.2-6.3-0.9-16.7-3.2-23-5.2-6.3-1.9-16-5.6-21.5-8.2-5.5-2.6-16.7-9.1-25-14.4-12-7.8-15.7-9.7-18.5-9.6-1.9 0-6.2 0.7-9.5 1.4-3.3 0.7-8.5 2.3-11.5 3.5z"/>
</svg>