<svg version="1.2" xmlns="http://www.w3.org/2000/svg" viewBox="0 0 512 512" width="512" height="512">
	<title>recentIcon</title>
	<style>
		.s0 { fill: #ffffff } 
	</style>
	<path id="Path 0" fill-rule="evenodd" class="s0" d="m280.5 30.1c18.7-0.1 25.4 0.3 36 2 7.1 1.1 16.4 2.9 20.5 4 4.1 1.1 11.8 3.4 17 5.1 5.2 1.7 14.9 5.6 21.5 8.7 6.6 3.2 16.3 8.2 21.5 11.3 5.2 3 14 8.9 19.5 13 5.5 4.1 14.9 12.1 20.9 17.9 6 5.7 14.1 14.2 18 18.9 4 4.7 10.3 13.2 14.1 19 3.8 5.8 9.6 15.9 13 22.5 3.3 6.6 7.7 16.3 9.8 21.5 2 5.2 5 14.2 6.7 20 1.7 5.8 4 15.9 5.2 22.5 1.9 10.4 2.2 15.6 2.3 39 0 23.8-0.3 28.4-2.2 39-1.3 6.6-3.4 16.1-4.7 21-1.3 4.9-4.1 13.5-6.1 19-2 5.5-6 14.9-9 21-2.9 6.1-7.9 15.1-11 20-3.1 4.9-8.9 13.3-12.8 18.5-3.9 5.2-12.3 14.7-18.6 21.1-6.4 6.4-16.1 15.1-21.6 19.5-5.5 4.3-13.8 10.3-18.5 13.2-4.7 3-14.4 8.2-21.5 11.7-7.1 3.5-16.8 7.7-21.5 9.3-4.7 1.6-13.2 4.3-19 6-5.8 1.6-15.4 3.8-21.5 4.8-9 1.6-16.1 1.9-39 1.8-22.1 0-30-0.4-37.5-1.8-5.2-0.9-13.8-2.9-19-4.3-5.2-1.4-14-4.1-19.5-6-5.5-1.9-15.8-6.3-23-9.8-7.2-3.5-17.6-9.4-23.2-13.1-5.6-3.8-13.7-9.7-18-13.1-4.3-3.4-10.8-9.1-14.5-12.7-3.8-3.6-7.5-8.2-8.3-10.1-0.8-1.9-1.5-6.5-1.5-10.3-0.1-6 0.2-7.1 3.1-10.7 1.7-2.2 4.7-5.1 6.6-6.5 2.5-1.8 5.2-2.6 9.2-2.9 4.5-0.3 6.6 0.2 10.6 2.2 2.8 1.4 8.2 5.3 12 8.7 3.9 3.4 11.1 9.2 16 12.9 4.9 3.8 12.4 8.8 16.5 11.1 4.1 2.4 11.1 6 15.5 8.1 4.4 2 12.9 5.3 19 7.3 6.1 2 15.3 4.5 20.5 5.7 5.2 1.1 15.4 2.4 22.5 2.8 7.1 0.5 18.9 0.5 26 0.1 7.1-0.5 17.1-1.6 22-2.5 4.9-0.9 11.9-2.5 15.5-3.4 3.6-1 11.9-4 18.5-6.6 6.6-2.6 14.9-6.3 18.5-8.3 3.6-1.9 10.6-6.2 15.5-9.5 4.9-3.3 12.8-9.3 17.5-13.2 4.7-4 12.2-11.4 16.8-16.6 4.6-5.2 11.2-13.5 14.7-18.4 3.5-4.9 8.9-13.7 11.9-19.5 3-5.8 7-14.6 8.9-19.5 1.9-4.9 4.6-13.3 6-18.5 1.4-5.2 3.3-14 4.2-19.5 1.1-6.6 1.6-15.8 1.6-27 0-9.3-0.3-19-0.6-21.5-0.4-2.5-1.3-8.3-2.2-13-0.8-4.7-3-13.4-4.8-19.5-1.8-6.1-5.5-15.7-8.2-21.5-2.7-5.8-6.9-13.9-9.3-18-2.4-4.1-7.5-11.8-11.3-17-3.8-5.2-11.7-14.2-17.6-20-5.8-5.8-14.5-13.4-19.3-17-4.8-3.6-13.5-9.2-19.5-12.5-5.9-3.3-14.6-7.6-19.3-9.6-4.7-2-12.1-4.8-16.5-6.3-4.4-1.6-12.3-3.6-17.5-4.6-5.2-1.1-15.4-2.4-22.5-3-9.4-0.8-17.2-0.8-28-0.1-8.3 0.6-19.7 2.2-25.5 3.5-5.8 1.3-14.8 3.8-20 5.6-5.2 1.7-15.6 6.2-23 10-7.4 3.8-18.2 10.2-24 14.3-5.8 4.1-15.6 12.3-21.9 18.3-6.7 6.4-14.3 15-18.6 20.9-4 5.5-9.4 13.6-12 18-2.7 4.4-6.6 11.7-8.7 16.3-2.1 4.5-5.1 12.1-6.8 16.9-1.6 4.9-4.1 13.7-5.5 19.8-1.4 6.1-2.4 11.1-2.3 11.2 0.2 0.1 4.1-3.4 8.8-7.8 4.7-4.3 10.3-8.8 12.5-9.9 2.3-1.1 6.1-2 8.8-2 2.6 0 6.4 0.7 8.5 1.6 2 0.8 5.2 2.9 7 4.7 1.8 1.8 4 5.4 4.9 8.2 1 3.3 1.3 6.5 0.9 9.3-0.3 2.3-1.4 5.7-2.3 7.5-0.9 1.7-13.6 15.2-28.2 29.8-14.6 14.6-28.4 27.9-30.6 29.4-3.2 2.3-5.3 3-10.5 3.4-4.9 0.3-7.5-0.1-10.5-1.5-2.6-1.2-14-11.8-32.1-29.9-18.4-18.4-28.6-29.4-29.8-32-1.4-3-1.8-5.7-1.5-10.6 0.3-5.1 1-7.4 3.3-10.8 1.9-2.9 4.4-5 8-6.7 2.9-1.4 7-2.4 9.6-2.4 2.8 0 6.1 0.8 8.8 2.2 2.3 1.3 7.8 5.9 12.2 10.3 4.4 4.4 8.1 7.8 8.3 7.5 0.2-0.3 1.5-7 3.1-15 1.5-8 5-21.3 7.7-29.5 2.7-8.3 7.6-20.4 10.9-27 3.2-6.6 9.1-16.9 13.1-23 3.9-6 9.2-13.7 11.8-17 2.5-3.3 8-9.6 12.1-14 4.1-4.4 10.9-11.1 15-14.8 4.1-3.8 11.6-9.9 16.5-13.7 4.9-3.7 13.5-9.3 19-12.5 5.5-3.3 14.9-8.2 21-11.1 6.1-2.9 15.7-6.8 21.5-8.8 5.8-1.9 14.1-4.4 18.5-5.5 4.4-1.2 13.4-3 20-4 9-1.4 17.7-1.9 35-2zm0 102.9c5.5 0 7.9 0.5 11 2.4 2.2 1.3 5.1 4.1 9 10.1l1 132.2 24 24.4c15.3 15.6 24.8 26.1 26.2 28.9 1.4 2.8 2.3 6.4 2.3 9.5 0 3.2-0.8 6.6-2.2 9.4-1.3 2.5-4 5.9-6.1 7.5-3.4 2.7-4.9 3.2-11 3.5-5.6 0.3-8.1-0.1-11.1-1.5-2.4-1.2-15.1-13-32.6-30.4-23.2-23.1-29-29.4-30.4-33-1.5-4.1-1.7-10.8-1.1-149.8l3.1-4.4c1.7-2.3 4.8-5.3 7-6.5 3-1.8 5.5-2.3 10.9-2.3z"/>
</svg>