<svg version="1.2" xmlns="http://www.w3.org/2000/svg" viewBox="0 0 512 181" width="512" height="181">
	<title>busIcon</title>
	<style>
		.s0 { fill: #2985e1 } 
		.s1 { fill: #ffffff } 
	</style>
	<path id="Forma 1" fill-rule="evenodd" class="s0" d="m22.1 97.8v-6.5h169.4v6.5z"/>
	<path id="Forma 1 copy" fill-rule="evenodd" class="s0" d="m335.1 97.8v-6.5h169.4v6.5z"/>
	<path id="Livello 2" fill-rule="evenodd" class="s0" d="m23.6 118.3c-13 0-23.6-10.6-23.6-23.6 0-13.1 10.6-23.7 23.6-23.7 13.1 0 23.7 10.6 23.7 23.7 0 13-10.6 23.6-23.7 23.6z"/>
	<path id="Livello 3" fill-rule="evenodd" class="s0" d="m507.5 91.4l4.5 4.8-26.9 25-4.5-4.8z"/>
	<path id="Livello 3 copy" fill-rule="evenodd" class="s0" d="m509.7 93.3l-4.5 4.9-26.9-25 4.5-4.8z"/>
	<path id="Livello 1" fill-rule="evenodd" class="s0" d="m255.6 173.1c-45.3 0-82-36.6-82-82 0-45.4 36.7-82.1 82-82.1 45.4 0 82.1 36.7 82.1 82.1 0 45.4-36.7 82-82.1 82z"/>
	<path id="Path 0" fill-rule="evenodd" class="s1" d="m256 35c30.9 0 32.7 0 34 0.4 0.7 0.3 1.8 0.8 2.4 1.1 0.5 0.4 1.4 1 1.9 1.5 0.5 0.5 1.7 2.5 2.8 4.4 1.1 1.9 2.7 4.8 3.5 6.5 0.9 1.7 1.7 3.1 1.9 3.2 0.1 0 1.5 0.2 3.1 0.3 2.5 0.2 3.2 0.4 4.4 1 0.9 0.4 2.1 1.2 2.7 1.8 0.7 0.6 1.6 1.6 1.9 2.2 0.4 0.6 0.9 1.8 1.2 2.6 0.5 1.4 0.5 2 0.5 8 0 5.4-0.1 6.7-0.4 7.3-0.2 0.4-0.6 0.9-1 1.1-0.4 0.2-1.2 0.4-1.7 0.4-0.5 0-1.3-0.2-1.6-0.4-0.4-0.2-0.8-0.5-1-0.7-0.3-0.4-0.4-1.8-0.9-13.7l-0.6-0.9c-0.5-0.8-1-1.2-1.9-1.6-0.7-0.3-1.8-0.7-3.5-0.9l-0.1 34.8c-0.1 25-0.2 35.1-0.4 35.8-0.1 0.6-0.7 1.9-1.2 2.9-0.5 1-1.3 2.4-1.9 3.1-0.5 0.8-1.5 1.8-2.2 2.3-0.7 0.6-1.8 1.3-2.5 1.7-0.6 0.4-2.1 1-3.1 1.4-1.3 0.4-2.6 0.6-4.9 0.6v2c0 1.4-0.1 2.2-0.5 2.9-0.2 0.6-0.6 1.2-0.9 1.3-0.3 0.1-1.1 0.2-1.9 0.2-0.9 0-1.5-0.1-1.9-0.4-0.3-0.2-0.7-0.7-0.9-1.2-0.2-0.4-0.3-1.7-0.3-4.8h-49.7v2c0 1.1-0.1 2.4-0.3 2.8-0.1 0.5-0.6 1-0.9 1.2-0.4 0.3-1 0.4-1.9 0.4-0.8 0-1.6-0.1-1.9-0.2-0.2-0.1-0.6-0.6-0.8-1-0.2-0.3-0.5-1.6-0.6-2.8-0.1-1.1-0.3-2.1-0.3-2.1 0 0-0.9-0.2-2-0.3-1-0.2-2.7-0.6-3.8-1-1-0.5-2.4-1.2-3.1-1.7-0.7-0.5-1.8-1.5-2.5-2.2-0.8-0.8-1.8-2.1-2.3-2.9-0.4-0.7-1.1-2.1-2.1-4.7v-58.3l0.6-0.7c0.3-0.3 1-0.7 1.5-0.8 0.5-0.2 1.3-0.2 1.8-0.1 0.5 0.1 1.2 0.5 2.3 1.5l0.1 23.3 5.6 5.5c3.2 3 6.3 6 7 6.5 0.8 0.6 2 1.4 2.8 1.7 1.2 0.5 2.1 0.6 5.1 0.7 2.1 0.1 11.2 0.2 20.4 0.2 9.2 0 18.5-0.1 20.6-0.2 3.3-0.1 4-0.2 5.3-0.8 0.9-0.3 2.4-1.2 3.4-1.9 1.6-1.2 1.9-1.3 3-1.3 1 0 1.3 0.1 2 0.9 0.8 0.7 0.9 1 0.9 2 0 0.6-0.1 1.4-0.2 1.7-0.1 0.3-0.6 1-1 1.4-0.4 0.5-1.4 1.2-2.2 1.7-0.9 0.6-2.7 1.4-7.7 3.1l-49.1-0.3-1.8-0.6c-1-0.4-2.5-1.1-3.4-1.6-0.8-0.5-2.1-1.4-2.7-1.9-0.7-0.6-2.8-2.5-8.1-7.5l0.2 12c0.1 11.6 0.2 12 0.7 13.5 0.3 0.8 0.9 2 1.5 2.7 0.5 0.6 1.5 1.5 2.2 2 0.8 0.4 2.1 1 2.9 1.3 1.5 0.4 2.7 0.4 33.7 0.4 30.2 0.1 32.1 0 33.5-0.4 0.8-0.2 1.9-0.6 2.4-0.9 0.5-0.3 1.4-1 2-1.6 0.6-0.6 1.5-1.8 2.8-4.4l0.2-68.8-91.2 0.2-0.9 0.5c-0.6 0.3-1.3 1.1-2.5 2.9l-0.1 5.6c-0.1 3.1-0.3 6.1-0.3 6.6-0.1 0.6-0.4 1.2-0.7 1.5-0.5 0.5-1 0.7-2 0.7-1.3 0.1-1.4 0.1-3.4-1.5v-6.8c0-5.6 0.1-7 0.4-8.1 0.2-0.7 0.6-1.7 0.8-2.2 0.2-0.4 1-1.4 1.7-2.2 0.8-0.8 1.9-1.8 2.6-2.2 0.7-0.3 1.6-0.7 2-0.9 0.4-0.1 2-0.3 6.4-0.5l1.2-2.4c0.7-1.3 2-3.8 2.9-5.5 0.9-1.7 2.1-3.8 2.7-4.6 0.5-0.9 1.4-1.9 1.9-2.3 0.5-0.4 1.2-0.9 1.6-1.2 0.4-0.2 1.3-0.6 1.9-0.9 1.2-0.4 3.1-0.4 33.9-0.4zm-31.5 6.5c-1.4 1.1-2.2 1.9-2.6 2.5-0.4 0.6-1.6 2.7-2.6 4.7l-1.8 3.6c59.8 0.1 77.2 0.1 77.2 0.1 0.1-0.1-0.9-2-2.1-4.4-1.2-2.3-2.5-4.6-3-5.1-0.4-0.4-1.1-0.9-1.5-1.1-0.7-0.4-3.2-0.4-23.4-0.5-12.4 0-26.5 0-31.3 0.1zm3.4 79c0.8-0.1 1.8 0.1 2.2 0.3 0.5 0.2 1.1 0.6 1.4 1 0.3 0.3 0.7 1.1 0.9 1.8 0.2 0.9 0.2 1.4 0 2.3-0.2 0.6-0.6 1.5-0.9 1.8-0.3 0.4-0.9 0.8-1.4 1-0.4 0.2-1.3 0.3-2.1 0.3-0.7 0-1.6-0.1-2.1-0.4-0.5-0.2-1.2-0.8-1.5-1.4-0.4-0.5-0.7-1.4-0.7-2-0.1-0.6 0-1.5 0.2-2 0.1-0.5 0.5-1.3 0.9-1.7 0.3-0.3 0.8-0.7 1.1-0.8 0.2-0.1 1.1-0.2 2-0.2zm56.1-0.1c0.8 0 1.8 0.2 2.3 0.4 0.5 0.2 1.1 0.8 1.5 1.5 0.6 0.9 0.8 1.4 0.7 2.4 0 0.9-0.1 1.6-0.5 2.3-0.3 0.5-0.8 1.1-1.2 1.4-0.5 0.4-1.1 0.5-2.4 0.6-1.4 0-1.9 0-2.6-0.5-0.5-0.3-1.2-0.8-1.5-1.2-0.3-0.5-0.5-1.1-0.6-2.2 0-1.1 0.1-1.7 0.5-2.5 0.2-0.5 0.9-1.2 1.4-1.6 0.7-0.4 1.2-0.6 2.4-0.6zm-38 1.2h10c8.5 0 10.1 0.1 10.5 0.4 0.3 0.2 0.7 0.7 1 1.1 0.2 0.5 0.3 1.3 0.3 1.9 0 0.6-0.2 1.3-0.4 1.6-0.3 0.4-0.8 0.8-1.1 0.9-0.4 0.3-2.9 0.3-20.5 0.2l-0.7-0.8c-0.6-0.6-0.7-0.9-0.7-2.1 0.1-1.3 0.2-1.6 0.8-2.3z"/>
</svg>