<svg version="1.2" xmlns="http://www.w3.org/2000/svg" viewBox="0 0 512 512" width="512" height="512">
	<title>image</title>
	<style>
		.s0 { fill: #2985e1 } 
	</style>
	<path id="Path 0" fill-rule="evenodd" class="s0" d="m214.5 0.1c12 0 22.8 0.5 29.5 1.4 5.8 0.9 14.6 2.5 19.5 3.7 4.9 1.1 14.2 3.9 20.5 6 6.3 2.2 16 6.2 21.5 8.8 5.5 2.7 14.1 7.4 19 10.5 4.9 3.1 12.4 8.2 16.5 11.3 4.1 3.1 12 9.9 17.4 15.2 5.4 5.2 13.1 13.3 17 18 3.9 4.7 9.7 12.3 12.7 17 3.1 4.7 7.9 12.8 10.7 18 2.8 5.2 7 14.2 9.2 20 2.3 5.8 5.7 15.9 7.5 22.5 1.8 6.6 4.1 17.4 5.1 24 1.2 8.4 1.8 17.6 1.8 30.5 0 12.3-0.6 22.2-1.7 29.5-1 6.1-3 15.9-4.6 22-1.6 6.1-4.6 15.5-6.6 21-2.1 5.5-6.1 14.7-9 20.5-2.9 5.8-8.4 15.2-12.3 21-3.8 5.8-8.3 12.2-10.1 14.3-2.6 3.2-2.9 4-1.8 5.5 0.6 1 28.2 29.8 61.2 64.1 45.4 47.1 60.7 63.6 63 67.8 2.5 4.7 3 6.8 2.9 12.2 0 4.4-0.7 8.1-2.1 11.1-1.1 2.5-3.3 6-4.9 7.8-1.6 1.9-5.1 4.5-7.9 5.9-4.3 2.1-6.1 2.4-13 2.1-5.6-0.2-9.2-0.9-12-2.4-2.6-1.3-23.8-22.6-60.3-60.5-30.9-32.1-59.3-61.4-69.7-71.8l-7 4.6c-3.9 2.6-12.2 7.2-18.5 10.4-6.3 3.1-15.8 7.3-21 9.2-5.2 2-14.2 4.7-20 6.2-5.8 1.4-14.8 3.3-20 4.1-5.2 0.8-15.6 1.7-23 2-7.8 0.4-18.8 0.2-26-0.5-6.9-0.6-18-2.3-24.8-3.6-6.7-1.4-17-4.1-22.9-6.1-6-2-16.9-6.5-24.3-10.1-7.4-3.5-17.3-9-22-12-4.7-3.1-12.3-8.5-17-12.2-4.7-3.6-12.6-10.6-17.6-15.6-5-4.9-11.9-12.6-15.4-17-3.5-4.4-9-12.1-12.3-17-3.2-4.9-8.8-14.9-12.3-22-3.5-7.1-8.1-18.5-10.4-25.2-2.2-6.8-5.1-17.8-6.5-24.5-1.3-6.8-2.9-18.8-3.5-26.8-0.7-10-0.7-18.7 0-28 0.5-7.4 1.7-17.6 2.6-22.5 0.9-4.9 2.6-13.1 3.9-18 1.3-4.9 4.2-13.7 6.4-19.5 2.2-5.8 6.2-14.8 8.8-20 2.7-5.2 7.5-13.5 10.7-18.5 3.2-4.9 8.3-12.2 11.4-16 3.1-3.8 9.2-10.8 13.6-15.4 4.5-4.6 11.9-11.6 16.6-15.5 4.7-3.9 13-10.1 18.5-13.8 5.5-3.6 15-9.1 21-12.1 6.1-3 15.5-7.2 21-9.2 5.5-2.1 15.2-5 21.5-6.6 6.3-1.6 15.8-3.6 21-4.3 5.2-0.8 18.1-1.4 28.5-1.5zm-28.5 57.3c-4.7 1-13.2 3.3-19 5.3-5.8 1.9-14.3 5.5-19 7.8-4.7 2.3-12.8 7.1-18 10.6-6.1 4-13.9 10.7-21.5 18.4-7.7 7.6-14.4 15.4-18.4 21.5-3.5 5.2-8.4 13.6-10.8 18.5-2.5 4.9-6.3 14.2-8.3 20.5-2.1 6.3-4.5 15.8-5.4 21-0.8 5.2-1.8 13.6-2.2 18.5-0.3 5.1-0.1 13.8 0.5 20 0.7 6.1 1.9 14.4 2.8 18.5 0.8 4.1 2.8 11.6 4.5 16.5 1.6 4.9 4.9 13.1 7.3 18 2.3 4.9 7 13.1 10.3 18 3.3 4.9 9 12.4 12.6 16.5 3.6 4.1 9.8 10.4 13.8 13.9 4 3.5 11.6 9.2 16.8 12.7 5.2 3.4 13.8 8.3 19 10.7 5.2 2.4 13.1 5.6 17.5 7 4.4 1.4 10.9 3.3 14.5 4.1 3.6 0.8 11.2 2 17 2.7 6.2 0.7 15.4 0.9 22.5 0.6 6.6-0.3 16.5-1.5 22-2.6 5.5-1.1 14.7-3.7 20.5-5.7 5.8-1.9 14.3-5.6 19-8 4.7-2.4 11.6-6.4 15.5-9 3.9-2.6 10.8-7.9 15.5-11.8 4.6-3.9 11.3-10.5 14.8-14.6 3.6-4.1 9.2-11.6 12.4-16.5 3.3-4.9 7.5-11.9 9.3-15.5 1.8-3.6 4.5-9.6 6-13.5 1.5-3.9 4-11.9 5.6-18 1.5-6.1 3.3-16.8 4-24 1-10.2 1-15.6 0.1-25-0.7-6.6-1.9-15.4-2.8-19.5-0.9-4.1-2.9-11.6-4.6-16.5-1.6-4.9-5-13.1-7.4-18-2.5-4.9-5.9-11.2-7.6-14-1.8-2.7-6-8.6-9.4-13-3.3-4.4-10.3-12-15.5-17-5.2-4.9-13.7-11.9-18.9-15.4-5.2-3.5-13.3-8.3-18-10.6-4.7-2.3-11.9-5.5-16-6.9-4.1-1.5-10.9-3.6-15-4.6-4.1-1-10.9-2.3-15-2.9-4.1-0.5-11.3-1.2-16-1.4-4.7-0.2-12.6-0.1-17.5 0.3-4.9 0.4-12.8 1.5-17.5 2.4z"/>
</svg>