<svg version="1.2" xmlns="http://www.w3.org/2000/svg" viewBox="0 0 512 512" width="512" height="512">
	<title>image</title>
	<style>
		.s0 { fill: #2985e1 } 
	</style>
	<path id="Path 0" class="s0" d="m248.5 41.3c-3.8 2.2-5.4 5-36 65.6-17.6 34.8-32.5 63.9-33.1 64.5-0.5 0.6-31.8 5.5-69.5 10.9-53.7 7.8-69.4 10.3-72.9 12-3.4 1.7-5.1 3.3-6.8 6.7-1.2 2.5-2.2 5.9-2.2 7.5 0 1.7 0.9 4.8 1.9 7 1.3 2.8 17 18.6 51.9 52.5 31.6 30.7 50 49.2 50.1 50.5 0.1 1.1-5.1 32.1-11.4 69-6.3 36.9-11.5 68.5-11.5 70.3 0 1.7 0.9 5 2 7.2 1.2 2.4 3.5 4.9 5.8 6.2 3 1.7 4.8 2 9.7 1.6 5.5-0.5 10.7-3 67.8-33.2l61.7-32.6c95.7 50.4 125.3 65.5 127.5 65.9 2.2 0.5 5.6 0.5 7.5 0 1.9-0.4 4.6-1.6 5.9-2.6 1.3-1 3.2-3.4 4.2-5.3 1.1-1.9 1.9-5.1 1.9-7 0-1.9-5.2-33.6-11.5-70.5-6.3-36.9-11.5-67.8-11.5-68.7 0-1.1 21.6-22.9 50.5-51 36.8-35.9 50.9-50.3 52-53 0.8-2.1 1.5-5 1.5-6.5 0-1.6-1-4.8-2.2-7.3-1.7-3.4-3.4-5-6.8-6.7-3.6-1.7-18.9-4.2-73.5-12.1-37.9-5.5-69.2-10.4-69.3-10.8-0.2-0.5-14.6-29.5-32-64.4l-31.7-63.5c-7-3.5-10.6-4.5-12.5-4.5-1.9 0-5.3 1-7.5 2.3z"/>
</svg>