<svg version="1.2" xmlns="http://www.w3.org/2000/svg" viewBox="0 0 512 512" width="512" height="512">
	<title>image</title>
	<style>
		.s0 { fill: #2985e1 } 
	</style>
	<path id="Path 0" fill-rule="evenodd" class="s0" d="m287.5 0.3c7.1 0.1 10.1 0.7 14 2.6 3.7 1.8 12 9.3 31.8 29 23 22.9 27.3 27.5 30 33.1 2.9 5.8 3.2 7.4 3.1 15 0 5.9-0.6 9.7-1.8 12.5-1 2.2-1.8 6-1.9 8.5 0 3.1 0.7 5.7 2.4 8.4 1.3 2.2 4 5 5.9 6.3 2.5 1.7 4.9 2.4 8.5 2.4 2.7 0 6.8-0.8 9-1.7 2.7-1.2 6.7-1.8 12.5-1.8 7.6-0.1 9.2 0.2 15 3.1 5.6 2.7 10.2 7 33.1 30 19.7 19.8 27.2 28.1 29 31.8 2.1 4.3 2.4 6.4 2.4 15.5 0 9.5-0.3 11-5.5 21l6.2 0.3c4.1 0.2 8 1.1 11.3 2.7 2.7 1.3 7 4.5 9.5 7 2.5 2.5 5.7 6.7 9.5 14.5v42.5c0 41.8 0 42.6-2.2 47-1.2 2.5-3.7 6.3-5.6 8.5-1.9 2.2-6.4 5.6-10.3 7.6-3.8 2-8.1 5.1-9.7 6.8-1.5 1.7-3.1 4.9-3.7 7.1q-1 4 0 8c0.6 2.2 2.2 5.4 3.7 7.1 1.6 1.7 5.9 4.8 9.7 6.8 3.9 2 8.4 5.4 10.3 7.6 1.9 2.2 4.4 6 5.6 8.5 2.1 4.4 2.2 5.6 2.5 45.5 0.3 40.3 0.3 41.1-1.9 47-1.6 4.3-3.8 7.6-7.8 11.6-3.9 3.9-7.3 6.2-17.1 9.9h-458l-5.8-2.2c-3.9-1.5-7.5-4-11.3-7.8-4.1-4-6.2-7.1-7.8-11.5-2.2-5.9-2.2-6.8-1.9-47 0.3-39.9 0.4-41.1 2.5-45.5 1.2-2.5 3.7-6.3 5.6-8.5 1.9-2.2 6.4-5.6 10.3-7.6 3.8-2 8.1-5.1 9.6-6.8 1.6-1.7 3.3-4.9 3.8-7.1q1-4 0-8c-0.5-2.2-2.2-5.4-3.8-7.1-1.5-1.7-5.8-4.8-9.6-6.8-3.9-2-8.4-5.4-10.3-7.6-1.9-2.2-4.4-6-5.6-8.5-2.2-4.4-2.2-5.2-2.2-89.5l2.5-5c1.3-2.8 4.5-7 7-9.5 2.5-2.5 6.7-5.7 9.5-7 4.5-2.3 6.4-2.5 35-3.1l104.5-104.3c57.5-57.4 105.9-105.2 107.5-106.3 1.6-1.2 5-2.8 7.5-3.7 3.2-1.1 7.2-1.5 13.5-1.3zm-61 88.7l127 127h77c15.1-15.1 19.5-20.2 19.5-21 0-0.8-10.9-12.4-24.2-25.7l-24.3-24.2c-10.3 3.6-14.5 4.1-21 4.1-6.4 0-10.9-0.6-15.5-2-3.6-1.2-8.5-3.4-11-5-2.5-1.6-6.4-4.9-8.8-7.3-2.4-2.4-5.4-6.2-6.7-8.4-1.3-2.2-3.4-6.7-4.6-10-1.6-4.5-2.1-8.3-2.2-15.5 0-7.1 0.5-11 2.1-15.5l2.1-6c-37.5-37.6-49.1-48.5-49.9-48.5-0.8 0-14.6 13.1-30.5 29zm-127 127h210c-81-81.4-104.6-105-104.8-105-0.1 0-23.8 23.6-52.7 52.5zm-68.4 67.6l0.4 33.9c10 5.4 15.3 9.4 18.2 12.2 3.3 3.3 6.6 8.1 8.8 12.5 2.1 4.2 4.1 10.3 4.7 14.3 0.9 5.2 0.9 8.9 0 14.5-0.7 4.7-2.4 10.2-4.7 14.7-2.1 4.4-5.6 9.4-8.8 12.6-2.8 2.9-8.1 6.8-11.7 8.7l-6.5 3.5v70l344.5 0.5v-234c-315.1 0-343 0.2-344.1 1.4-1 1-1.2 8.4-0.8 35.2zm375.9 197.4l73.5-0.5v-70c-10.1-5.4-15.4-9.3-18.3-12.2-3.1-3.2-6.6-8.2-8.8-12.6-2.2-4.5-3.9-10-4.6-14.7-0.9-5.6-0.9-9.3 0-14.5 0.6-4 2.6-10.1 4.6-14.3 2.2-4.4 5.6-9.2 8.9-12.5 2.9-2.8 8.2-6.8 11.7-8.7l6.5-3.5c0.4-59.8 0.1-68.3-0.8-69.3-0.9-1-9-1.3-37-1.2h-35.7zm-302-195h227v31h-227zm0 60h227v31h-227zm0 60h227v31h-227z"/>
</svg>