<svg version="1.2" xmlns="http://www.w3.org/2000/svg" viewBox="0 0 512 512" width="512" height="512">
	<title>image</title>
	<style>
		.s0 { fill: #ffffff } 
	</style>
	<path id="Path 0" class="s0" d="m266.7 183.3c-0.2 165-0.4 183.7-1.9 188.2-0.8 2.8-2.6 7.5-3.8 10.5-1.2 3-3.8 8-5.7 11-2 3-5.4 7.5-7.6 10-2.1 2.5-6.5 6.5-9.6 9-3.1 2.5-9 6.2-13.1 8.3-4.1 2-11.1 4.6-15.5 5.7-5.4 1.4-11.3 2-18 2-6.8 0-12.5-0.6-18-2-4.4-1.2-11.4-3.9-15.5-6-4.1-2.2-10.1-6-13.2-8.5-3.2-2.5-8.3-7.5-11.3-11.3-3.1-3.7-7.1-9.8-9-13.7-1.9-3.9-4.4-10.8-5.6-15.5-1.8-7.1-2.1-10.4-1.7-20.5 0.4-9.3 1.1-13.8 3.1-20 1.5-4.4 4.3-10.9 6.4-14.4 2.1-3.6 6.7-9.6 10.3-13.4 3.6-3.8 9.2-8.8 12.5-11 3.3-2.3 8.7-5.3 12-6.8 3.3-1.4 9.2-3.4 13-4.4 4.4-1.1 10.7-1.8 17-1.8 5.7 0 12.9 0.7 16.8 1.7 3.7 0.9 6.9 1.6 7.2 1.6 0.3 0 0.5-19.2 0.5-42.8v-42.7c-9.7-1.2-18.3-1.5-25.5-1.5-7.1 0-17.5 0.7-23 1.5-5.5 0.8-14.8 2.8-20.7 4.5-6 1.6-15.2 4.9-20.5 7.3-5.4 2.3-13.4 6.4-17.8 9.1-4.4 2.7-11.1 7.2-15 10.1-3.8 2.9-11.4 9.7-16.8 15.1-5.4 5.5-12.7 14-16.2 18.9-3.5 4.9-8.9 13.7-11.9 19.5-3 5.8-7.1 15.2-9 21-2 5.8-4.7 15.4-5.9 21.5-1.8 9.2-2.2 14.3-2.1 30.5 0 16.4 0.4 21.2 2.3 30 1.2 5.8 3.4 14.1 4.8 18.5 1.4 4.4 4.4 12.1 6.8 17 2.3 4.9 6.1 12.1 8.5 16 2.3 3.9 7.1 10.6 10.5 15 3.4 4.4 10.7 12.3 16.1 17.5 5.5 5.2 14.2 12.4 19.4 15.9 5.2 3.5 13.8 8.5 19 11.1 5.2 2.6 12.9 6 17 7.4 4.1 1.5 11.1 3.6 15.5 4.7 4.4 1.1 12.5 2.7 18 3.5 5.5 0.7 15.2 1.4 21.5 1.4 6.3 0 16.2-0.7 22-1.4 5.8-0.8 14.1-2.3 18.5-3.5 4.4-1.1 11.4-3.2 15.5-4.7 4.1-1.4 11.8-4.8 17-7.4 5.2-2.6 13.8-7.6 19-11.1 5.2-3.5 14.2-10.9 19.9-16.4 5.7-5.5 13.9-14.7 18.2-20.5 4.5-6 10.5-15.7 13.9-22.5 3.3-6.6 7.3-16.1 8.9-21 1.6-4.9 4-13.5 5.2-19 2.3-10 2.3-10.3 2.7-112.5l0.3-102.5c16.6 10.9 25.5 16.1 30.4 18.6 5 2.6 14.2 6.7 20.5 9.3 6.3 2.5 16.9 5.9 23.5 7.6 6.6 1.6 16.5 3.6 22 4.5 5.5 0.8 15.1 1.8 21.3 2.2l11.2 0.8v-84c-12.8-1.1-20.3-2.2-25-3.1-4.7-0.9-11.9-2.7-16-4.1-4.1-1.4-10.6-4-14.5-5.8-3.9-1.9-11.2-6.1-16.2-9.4-5.1-3.4-13-9.6-17.4-13.9-4.5-4.2-11-11.5-14.5-16.2-3.5-4.7-8.6-12.8-11.3-18-2.7-5.2-6.1-13.1-7.6-17.5-1.5-4.4-3.6-12.4-4.6-17.8-1-5.3-1.9-12.6-1.9-16.2v-6.5h-85z"/>
</svg>