<svg version="1.2" xmlns="http://www.w3.org/2000/svg" viewBox="0 0 512 512" width="512" height="512">
	<title>image</title>
	<style>
		.s0 { fill: #ffffff } 
	</style>
	<path id="Path 0" fill-rule="evenodd" class="s0" d="m252.5 75.2c67.6-0.1 132.4 0.3 144 0.8 11.6 0.5 24.6 1.4 29 2 4.4 0.6 11.6 1.8 16 2.6 4.4 0.8 11.6 2.7 16 4.1 4.4 1.4 10.3 3.7 13 5.1 2.8 1.3 7 3.8 9.5 5.5 2.5 1.6 5.8 4.2 7.4 5.6 1.5 1.4 4.5 4.8 6.6 7.6 2 2.7 5.1 7.8 6.9 11.2 1.7 3.5 4.2 10.5 5.5 15.5 1.3 5.1 3 13.4 3.8 18.3 1 6.9 1.3 28.5 1.3 94.5 0 64.7-0.3 87.9-1.3 95.5-0.7 5.5-2.7 15.4-4.3 22-1.6 6.6-4.3 14.9-6 18.5-1.7 3.6-4.6 9-6.4 12-1.9 3-6 8.2-9.2 11.4-3.2 3.3-8.7 7.8-12.3 10.1-3.6 2.3-8.8 5.2-11.5 6.4-2.8 1.3-7.7 3.1-11 4.1-3.3 1.1-9.4 2.6-13.5 3.5-4.1 0.9-12.9 2.3-19.5 3.2-10.3 1.3-30.4 1.6-141.5 2-85 0.3-137.2 0.1-152-0.6-12.4-0.6-27.5-2-33.5-3-6-1.1-13.9-2.7-17.5-3.6-3.6-0.9-9.6-2.9-13.5-4.4-3.9-1.5-10.4-4.7-14.5-7.1-4.8-2.7-10.6-7.4-16-12.9-5.1-5.2-9.9-11.2-12.1-15.1-1.9-3.6-4.9-10.4-6.7-15.3-1.8-4.8-4.1-13.1-5.1-18.4-1.1-5.4-2.5-15.4-3.1-22.3-0.8-8.5-1-38.8-0.8-95 0.4-71.4 0.6-83.7 2.1-91.5 0.9-4.9 2.6-12.2 3.8-16 1.1-3.8 3.7-10.2 5.7-14 2.4-4.7 6.1-9.5 11.1-14.5 5.4-5.3 9.9-8.7 15.6-11.7 4.4-2.2 11.6-5.2 16-6.6 4.4-1.4 11.6-3.2 16-4.1 4.4-0.8 11.8-2 16.5-2.7 4.7-0.6 16.2-1.4 25.5-1.8 9.3-0.5 72.3-0.8 140-0.9zm-51.9 114.8l-2.7 3.5c0.1 114.6 0.2 119.8 1.8 123.2 1 2 2.9 4.5 4.3 5.5 1.4 1 4.1 2.3 6 2.8 2.2 0.6 4.8 0.6 7 0 1.9-0.5 27.8-13.6 57.5-29.1 29.7-15.5 55.3-29.3 56.8-30.8 1.6-1.4 3.5-3.8 4.3-5.4 0.8-1.5 1.4-4 1.4-5.7 0-1.7-0.6-4.5-1.4-6.3-0.7-1.7-2.4-4.2-3.7-5.4-1.3-1.2-22.4-12.6-46.9-25.4-24.5-12.7-49.8-25.8-56.3-29-8.2-4.1-12.9-5.9-15.5-5.9-2.4 0-5 0.8-6.9 2.3-1.6 1.2-4.2 3.8-5.7 5.7z"/>
</svg>